<svg width="16" height="12" viewBox="0 0 16 12" fill="none" xmlns="http://www.w3.org/2000/svg">
<path d="M15.7096 4.57189L13.3971 11.655C13.3739 11.7264 13.3349 11.7916 13.2829 11.8459C13.231 11.9001 13.1676 11.942 13.0972 11.9683C13.0269 11.9947 12.9516 12.0049 12.8768 11.9981C12.802 11.9914 12.7297 11.9679 12.6653 11.9294C12.6509 11.9206 11.0528 11 8.24777 11C5.44277 11 3.84465 11.9206 3.82902 11.93C3.76459 11.9682 3.69241 11.9913 3.61781 11.9979C3.54322 12.0044 3.46811 11.9941 3.39804 11.9677C3.32797 11.9413 3.26472 11.8995 3.21297 11.8453C3.16121 11.7912 3.12227 11.7262 3.09902 11.655L0.787771 4.57001C0.741203 4.42818 0.737614 4.27575 0.777457 4.13189C0.8173 3.98802 0.898794 3.85915 1.01169 3.76149C1.12459 3.66382 1.26384 3.60172 1.41194 3.583C1.56004 3.56428 1.71037 3.58976 1.84402 3.65626L4.9809 5.21876L7.6009 0.86501C7.66825 0.753339 7.76331 0.660964 7.87686 0.596841C7.99042 0.532718 8.11861 0.499023 8.24902 0.499023C8.37943 0.499023 8.50763 0.532718 8.62118 0.596841C8.73474 0.660964 8.8298 0.753339 8.89715 0.86501L11.5171 5.21876L14.6553 3.65626C14.7891 3.58967 14.9396 3.56421 15.0879 3.58312C15.2361 3.60202 15.3755 3.66443 15.4883 3.76246C15.6011 3.8605 15.6823 3.98976 15.7217 4.13394C15.7611 4.27811 15.7569 4.43073 15.7096 4.57251V4.57189Z" fill="white"/>
</svg>
