<svg width="12" height="13" viewBox="0 0 12 13" fill="none" xmlns="http://www.w3.org/2000/svg">
<path d="M10.375 4.875H8.625V3.5625C8.625 2.86631 8.34844 2.19863 7.85616 1.70634C7.36387 1.21406 6.69619 0.9375 6 0.9375C5.30381 0.9375 4.63613 1.21406 4.14384 1.70634C3.65156 2.19863 3.375 2.86631 3.375 3.5625V4.875H1.625C1.39294 4.875 1.17038 4.96719 1.00628 5.13128C0.842187 5.29538 0.75 5.51794 0.75 5.75V11.875C0.75 12.1071 0.842187 12.3296 1.00628 12.4937C1.17038 12.6578 1.39294 12.75 1.625 12.75H10.375C10.6071 12.75 10.8296 12.6578 10.9937 12.4937C11.1578 12.3296 11.25 12.1071 11.25 11.875V5.75C11.25 5.51794 11.1578 5.29538 10.9937 5.13128C10.8296 4.96719 10.6071 4.875 10.375 4.875ZM6 9.46875C5.87021 9.46875 5.74333 9.43026 5.63541 9.35815C5.52749 9.28604 5.44337 9.18355 5.3937 9.06364C5.34403 8.94372 5.33104 8.81177 5.35636 8.68447C5.38168 8.55717 5.44418 8.44024 5.53596 8.34846C5.62774 8.25668 5.74467 8.19418 5.87197 8.16886C5.99927 8.14354 6.13122 8.15653 6.25114 8.2062C6.37105 8.25587 6.47354 8.33999 6.54565 8.44791C6.61776 8.55583 6.65625 8.68271 6.65625 8.8125C6.65625 8.98655 6.58711 9.15347 6.46404 9.27654C6.34097 9.39961 6.17405 9.46875 6 9.46875ZM7.75 4.875H4.25V3.5625C4.25 3.09837 4.43437 2.65325 4.76256 2.32506C5.09075 1.99687 5.53587 1.8125 6 1.8125C6.46413 1.8125 6.90925 1.99687 7.23744 2.32506C7.56563 2.65325 7.75 3.09837 7.75 3.5625V4.875Z" fill="#808080"/>
</svg>
