<svg width="375" height="403" viewBox="0 0 375 403" fill="none" xmlns="http://www.w3.org/2000/svg">
<mask id="path-1-inside-1_3406_9308" fill="white">
<path d="M20 32C20 14.3269 34.3269 0 52 0H323C340.673 0 355 14.3269 355 32V109C355 126.673 340.673 141 323 141H52C34.3269 141 20 126.673 20 109V32Z"/>
</mask>
<path d="M20 32C20 14.3269 34.3269 0 52 0H323C340.673 0 355 14.3269 355 32V109C355 126.673 340.673 141 323 141H52C34.3269 141 20 126.673 20 109V32Z" fill="#F1EDE7"/>
<path d="M19.5 31.5C19.5 13.5507 34.0507 -1 52 -1H323C340.949 -1 355.5 13.5507 355.5 31.5L354.5 32C354.5 14.8792 340.397 1 323 1H52C34.603 1 20.5 14.8792 20.5 32L19.5 31.5ZM355 141H20H355ZM52 141C34.0507 141 19.5 126.449 19.5 108.5V31.5C19.5 13.5507 34.0507 -1 52 -1V1C34.603 1 20.5 14.8792 20.5 32V109C20.5 126.673 34.603 141 52 141ZM323 -1C340.949 -1 355.5 13.5507 355.5 31.5V108.5C355.5 126.449 340.949 141 323 141C340.397 141 354.5 126.673 354.5 109V32C354.5 14.8792 340.397 1 323 1V-1Z" fill="#9792E3" mask="url(#path-1-inside-1_3406_9308)"/>
<path d="M45.2109 70V68.3594C45.2109 66.6536 45.4714 65.1237 45.9922 63.7695C46.526 62.4023 47.2096 61.1393 48.043 59.9805C48.8763 58.8086 49.7552 57.6628 50.6797 56.543C51.5781 55.4492 52.431 54.3294 53.2383 53.1836C54.0586 52.0247 54.7227 50.7747 55.2305 49.4336C55.7513 48.0794 56.0117 46.5625 56.0117 44.8828C56.0117 44.0755 55.888 43.3854 55.6406 42.8125C55.4062 42.2266 54.9115 41.9336 54.1562 41.9336C53.0104 41.9336 52.4375 42.9557 52.4375 45V49.1992H45.2109C45.1979 48.8997 45.1784 48.5612 45.1523 48.1836C45.1393 47.806 45.1328 47.4414 45.1328 47.0898C45.1328 44.6159 45.3932 42.5195 45.9141 40.8008C46.4349 39.069 47.3529 37.7539 48.668 36.8555C49.9961 35.944 51.8581 35.4883 54.2539 35.4883C57.1055 35.4883 59.319 36.2891 60.8945 37.8906C62.4831 39.4922 63.2773 41.7773 63.2773 44.7461C63.2773 46.7643 63.0169 48.5352 62.4961 50.0586C61.9753 51.569 61.2852 52.9492 60.4258 54.1992C59.5664 55.4362 58.6224 56.6732 57.5938 57.9102C56.8646 58.7826 56.1549 59.6745 55.4648 60.5859C54.7878 61.4974 54.1888 62.474 53.668 63.5156H63.043V70H45.2109ZM72.8484 70.3125C69.9448 70.3125 67.6987 69.4987 66.1102 67.8711C64.5346 66.2435 63.7469 63.8997 63.7469 60.8398V45.332C63.7469 42.1029 64.4956 39.6289 65.993 37.9102C67.5034 36.1784 69.7885 35.3125 72.8484 35.3125C75.9214 35.3125 78.2065 36.1784 79.7039 37.9102C81.2013 39.6289 81.95 42.1029 81.95 45.332V60.8398C81.95 63.8997 81.1622 66.2435 79.5867 67.8711C78.0112 69.4987 75.7651 70.3125 72.8484 70.3125ZM72.8484 63.9844C73.3823 63.9844 73.799 63.7435 74.0984 63.2617C74.3979 62.7799 74.5477 62.2396 74.5477 61.6406V44.668C74.5477 43.8607 74.4565 43.1576 74.2742 42.5586C74.1049 41.9466 73.6297 41.6406 72.8484 41.6406C72.0672 41.6406 71.5854 41.9466 71.4031 42.5586C71.2339 43.1576 71.1492 43.8607 71.1492 44.668V61.6406C71.1492 62.2396 71.299 62.7799 71.5984 63.2617C71.9109 63.7435 72.3276 63.9844 72.8484 63.9844ZM91.8141 70.3125C88.9104 70.3125 86.6643 69.4987 85.0758 67.8711C83.5003 66.2435 82.7125 63.8997 82.7125 60.8398V45.332C82.7125 42.1029 83.4612 39.6289 84.9586 37.9102C86.469 36.1784 88.7542 35.3125 91.8141 35.3125C94.887 35.3125 97.1721 36.1784 98.6695 37.9102C100.167 39.6289 100.916 42.1029 100.916 45.332V60.8398C100.916 63.8997 100.128 66.2435 98.5523 67.8711C96.9768 69.4987 94.7307 70.3125 91.8141 70.3125ZM91.8141 63.9844C92.3479 63.9844 92.7646 63.7435 93.0641 63.2617C93.3635 62.7799 93.5133 62.2396 93.5133 61.6406V44.668C93.5133 43.8607 93.4221 43.1576 93.2398 42.5586C93.0706 41.9466 92.5953 41.6406 91.8141 41.6406C91.0328 41.6406 90.551 41.9466 90.3688 42.5586C90.1995 43.1576 90.1148 43.8607 90.1148 44.668V61.6406C90.1148 62.2396 90.2646 62.7799 90.5641 63.2617C90.8766 63.7435 91.2932 63.9844 91.8141 63.9844ZM119.003 70.3125C116.516 70.3125 114.511 69.5378 112.988 67.9883C111.477 66.4388 110.722 64.2708 110.722 61.4844V45.625C110.722 42.2917 111.379 39.7396 112.695 37.9688C114.023 36.1979 116.178 35.3125 119.159 35.3125C120.787 35.3125 122.232 35.612 123.495 36.2109C124.771 36.8099 125.774 37.7083 126.503 38.9062C127.232 40.0911 127.597 41.5885 127.597 43.3984V49.3359H120.761V44.2578C120.761 43.2292 120.631 42.5391 120.37 42.1875C120.11 41.8229 119.706 41.6406 119.159 41.6406C118.521 41.6406 118.092 41.875 117.87 42.3438C117.649 42.7995 117.538 43.4115 117.538 44.1797V61.3867C117.538 62.3372 117.675 63.0078 117.948 63.3984C118.235 63.7891 118.639 63.9844 119.159 63.9844C119.745 63.9844 120.155 63.7435 120.39 63.2617C120.637 62.7799 120.761 62.1549 120.761 61.3867V55.1953H127.675V61.6992C127.675 64.7201 126.913 66.9141 125.39 68.2812C123.866 69.6354 121.738 70.3125 119.003 70.3125ZM129.18 70V35.625H139.727C141.484 35.625 142.812 36.0286 143.711 36.8359C144.609 37.6302 145.208 38.75 145.508 40.1953C145.82 41.6276 145.977 43.3138 145.977 45.2539C145.977 47.1289 145.736 48.6263 145.254 49.7461C144.785 50.8659 143.893 51.6406 142.578 52.0703C143.659 52.2917 144.414 52.832 144.844 53.6914C145.286 54.5378 145.508 55.638 145.508 56.9922V70H138.73V56.543C138.73 55.5404 138.522 54.9219 138.105 54.6875C137.702 54.4401 137.044 54.3164 136.133 54.3164V70H129.18ZM136.172 48.3594H137.832C138.783 48.3594 139.258 47.3242 139.258 45.2539C139.258 43.9128 139.154 43.0339 138.945 42.6172C138.737 42.2005 138.346 41.9922 137.773 41.9922H136.172V48.3594ZM150.762 64.1211V60.0586H146.7V55.5273H150.762V51.4648H155.294V55.5273H159.356V60.0586H155.294V64.1211H150.762Z" fill="#9792E3"/>
<path d="M48.9361 106.168C48.2735 106.168 47.6668 106.047 47.1161 105.804C46.5655 105.552 46.0988 105.211 45.7161 104.782C45.3335 104.353 45.0581 103.872 44.8901 103.34L46.0801 102.85C46.3321 103.522 46.7055 104.04 47.2001 104.404C47.7041 104.759 48.2921 104.936 48.9641 104.936C49.3748 104.936 49.7341 104.871 50.0421 104.74C50.3501 104.609 50.5881 104.427 50.7561 104.194C50.9335 103.951 51.0221 103.671 51.0221 103.354C51.0221 102.915 50.8961 102.57 50.6441 102.318C50.4015 102.057 50.0421 101.861 49.5661 101.73L47.6481 101.142C46.8921 100.909 46.3135 100.54 45.9121 100.036C45.5108 99.532 45.3101 98.9533 45.3101 98.3C45.3101 97.7307 45.4455 97.2313 45.7161 96.802C45.9961 96.3633 46.3788 96.0227 46.8641 95.78C47.3588 95.528 47.9188 95.402 48.5441 95.402C49.1695 95.402 49.7341 95.514 50.2381 95.738C50.7515 95.962 51.1855 96.2653 51.5401 96.648C51.8948 97.0213 52.1561 97.4507 52.3241 97.936L51.1481 98.426C50.9241 97.838 50.5881 97.3947 50.1401 97.096C49.6921 96.788 49.1648 96.634 48.5581 96.634C48.1848 96.634 47.8535 96.6993 47.5641 96.83C47.2841 96.9513 47.0648 97.1333 46.9061 97.376C46.7568 97.6093 46.6821 97.8893 46.6821 98.216C46.6821 98.5987 46.8035 98.9393 47.0461 99.238C47.2888 99.5367 47.6575 99.7653 48.1521 99.924L49.9021 100.442C50.7235 100.694 51.3441 101.053 51.7641 101.52C52.1841 101.987 52.3941 102.565 52.3941 103.256C52.3941 103.825 52.2448 104.329 51.9461 104.768C51.6568 105.207 51.2508 105.552 50.7281 105.804C50.2148 106.047 49.6175 106.168 48.9361 106.168ZM57.4549 106.084C56.7176 106.084 56.1482 105.874 55.7469 105.454C55.3549 105.034 55.1589 104.441 55.1589 103.676V99.7H53.7869V98.454H54.0669C54.4029 98.454 54.6689 98.3513 54.8649 98.146C55.0609 97.9407 55.1589 97.67 55.1589 97.334V96.718H56.4609V98.454H58.1549V99.7H56.4609V103.634C56.4609 103.886 56.4982 104.105 56.5729 104.292C56.6569 104.479 56.7922 104.628 56.9789 104.74C57.1656 104.843 57.4129 104.894 57.7209 104.894C57.7862 104.894 57.8656 104.889 57.9589 104.88C58.0616 104.871 58.1549 104.861 58.2389 104.852V106C58.1176 106.028 57.9822 106.047 57.8329 106.056C57.6836 106.075 57.5576 106.084 57.4549 106.084ZM63.3466 106.168C62.6186 106.168 61.9699 105.995 61.4006 105.65C60.8313 105.305 60.3833 104.833 60.0566 104.236C59.7299 103.629 59.5666 102.953 59.5666 102.206C59.5666 101.45 59.7253 100.778 60.0426 100.19C60.3693 99.602 60.8079 99.14 61.3586 98.804C61.9186 98.4587 62.5439 98.286 63.2346 98.286C63.7946 98.286 64.2893 98.3887 64.7186 98.594C65.1573 98.79 65.5259 99.0607 65.8246 99.406C66.1326 99.742 66.3659 100.129 66.5246 100.568C66.6926 100.997 66.7766 101.445 66.7766 101.912C66.7766 102.015 66.7673 102.131 66.7486 102.262C66.7393 102.383 66.7253 102.5 66.7066 102.612H60.5186V101.492H65.9506L65.3346 101.996C65.4186 101.511 65.3719 101.077 65.1946 100.694C65.0173 100.311 64.7559 100.008 64.4106 99.784C64.0653 99.56 63.6733 99.448 63.2346 99.448C62.7959 99.448 62.3946 99.56 62.0306 99.784C61.6666 100.008 61.3819 100.33 61.1766 100.75C60.9806 101.161 60.9013 101.651 60.9386 102.22C60.9013 102.771 60.9853 103.256 61.1906 103.676C61.4053 104.087 61.7039 104.409 62.0866 104.642C62.4786 104.866 62.9033 104.978 63.3606 104.978C63.8646 104.978 64.2893 104.861 64.6346 104.628C64.9799 104.395 65.2599 104.096 65.4746 103.732L66.5666 104.292C66.4173 104.637 66.1839 104.955 65.8666 105.244C65.5586 105.524 65.1899 105.748 64.7606 105.916C64.3406 106.084 63.8693 106.168 63.3466 106.168ZM68.6142 108.8V98.454H69.8882V100.078L69.7202 99.756C70.0002 99.308 70.3829 98.9533 70.8682 98.692C71.3535 98.4213 71.9089 98.286 72.5342 98.286C73.2435 98.286 73.8782 98.4587 74.4382 98.804C75.0075 99.1493 75.4555 99.6207 75.7822 100.218C76.1089 100.806 76.2722 101.478 76.2722 102.234C76.2722 102.971 76.1089 103.639 75.7822 104.236C75.4555 104.833 75.0075 105.305 74.4382 105.65C73.8782 105.995 73.2389 106.168 72.5202 106.168C71.9135 106.168 71.3582 106.033 70.8542 105.762C70.3595 105.491 69.9769 105.109 69.7062 104.614L69.9162 104.39V108.8H68.6142ZM72.4222 104.908C72.8982 104.908 73.3229 104.791 73.6962 104.558C74.0695 104.325 74.3589 104.007 74.5642 103.606C74.7789 103.195 74.8862 102.738 74.8862 102.234C74.8862 101.711 74.7789 101.254 74.5642 100.862C74.3589 100.461 74.0695 100.143 73.6962 99.91C73.3229 99.6673 72.8982 99.546 72.4222 99.546C71.9462 99.546 71.5169 99.6627 71.1342 99.896C70.7609 100.129 70.4622 100.451 70.2382 100.862C70.0235 101.263 69.9162 101.721 69.9162 102.234C69.9162 102.738 70.0235 103.195 70.2382 103.606C70.4622 104.007 70.7609 104.325 71.1342 104.558C71.5169 104.791 71.9462 104.908 72.4222 104.908ZM80.8214 106.168C80.0654 106.168 79.4074 105.981 78.8474 105.608C78.2874 105.235 77.8908 104.731 77.6574 104.096L78.6934 103.592C78.9081 104.04 79.2021 104.395 79.5754 104.656C79.9488 104.917 80.3641 105.048 80.8214 105.048C81.2321 105.048 81.5728 104.95 81.8434 104.754C82.1141 104.558 82.2494 104.301 82.2494 103.984C82.2494 103.76 82.1841 103.583 82.0534 103.452C81.9321 103.312 81.7828 103.205 81.6054 103.13C81.4281 103.046 81.2648 102.985 81.1154 102.948L79.9814 102.626C79.3001 102.43 78.8008 102.15 78.4834 101.786C78.1754 101.422 78.0214 100.997 78.0214 100.512C78.0214 100.064 78.1334 99.6767 78.3574 99.35C78.5908 99.014 78.9034 98.7527 79.2954 98.566C79.6968 98.3793 80.1448 98.286 80.6394 98.286C81.3021 98.286 81.8948 98.454 82.4174 98.79C82.9494 99.126 83.3274 99.5973 83.5514 100.204L82.4874 100.694C82.3194 100.302 82.0674 99.994 81.7314 99.77C81.3954 99.5367 81.0174 99.42 80.5974 99.42C80.2148 99.42 79.9114 99.518 79.6874 99.714C79.4634 99.9007 79.3514 100.139 79.3514 100.428C79.3514 100.643 79.4074 100.82 79.5194 100.96C79.6314 101.091 79.7668 101.193 79.9254 101.268C80.0841 101.333 80.2381 101.389 80.3874 101.436L81.6194 101.8C82.2354 101.977 82.7114 102.253 83.0474 102.626C83.3928 102.999 83.5654 103.447 83.5654 103.97C83.5654 104.39 83.4488 104.768 83.2154 105.104C82.9821 105.44 82.6601 105.701 82.2494 105.888C81.8388 106.075 81.3628 106.168 80.8214 106.168ZM87.9698 106V98.454H89.2438V99.84L89.1038 99.644C89.2811 99.2147 89.5518 98.8973 89.9158 98.692C90.2798 98.4773 90.7231 98.37 91.2458 98.37H91.7078V99.602H91.0498C90.5178 99.602 90.0884 99.77 89.7618 100.106C89.4351 100.433 89.2718 100.899 89.2718 101.506V106H87.9698ZM96.4763 106.168C95.7483 106.168 95.0996 105.995 94.5303 105.65C93.961 105.305 93.513 104.833 93.1863 104.236C92.8596 103.629 92.6963 102.953 92.6963 102.206C92.6963 101.45 92.855 100.778 93.1723 100.19C93.499 99.602 93.9376 99.14 94.4883 98.804C95.0483 98.4587 95.6736 98.286 96.3643 98.286C96.9243 98.286 97.419 98.3887 97.8483 98.594C98.287 98.79 98.6556 99.0607 98.9543 99.406C99.2623 99.742 99.4956 100.129 99.6543 100.568C99.8223 100.997 99.9063 101.445 99.9063 101.912C99.9063 102.015 99.897 102.131 99.8783 102.262C99.869 102.383 99.855 102.5 99.8363 102.612H93.6483V101.492H99.0803L98.4643 101.996C98.5483 101.511 98.5016 101.077 98.3243 100.694C98.147 100.311 97.8856 100.008 97.5403 99.784C97.195 99.56 96.803 99.448 96.3643 99.448C95.9256 99.448 95.5243 99.56 95.1603 99.784C94.7963 100.008 94.5116 100.33 94.3063 100.75C94.1103 101.161 94.031 101.651 94.0683 102.22C94.031 102.771 94.115 103.256 94.3203 103.676C94.535 104.087 94.8336 104.409 95.2163 104.642C95.6083 104.866 96.033 104.978 96.4903 104.978C96.9943 104.978 97.419 104.861 97.7643 104.628C98.1096 104.395 98.3896 104.096 98.6043 103.732L99.6963 104.292C99.547 104.637 99.3136 104.955 98.9963 105.244C98.6883 105.524 98.3196 105.748 97.8903 105.916C97.4703 106.084 96.999 106.168 96.4763 106.168ZM105.342 109.08C104.81 109.08 104.315 108.996 103.858 108.828C103.41 108.66 103.023 108.427 102.696 108.128C102.379 107.839 102.136 107.498 101.968 107.106L103.186 106.546C103.317 106.901 103.564 107.199 103.928 107.442C104.301 107.694 104.768 107.82 105.328 107.82C105.757 107.82 106.145 107.736 106.49 107.568C106.845 107.409 107.125 107.167 107.33 106.84C107.535 106.523 107.638 106.135 107.638 105.678V103.984L107.876 104.236C107.615 104.749 107.237 105.141 106.742 105.412C106.257 105.683 105.72 105.818 105.132 105.818C104.423 105.818 103.788 105.655 103.228 105.328C102.668 104.992 102.229 104.539 101.912 103.97C101.595 103.391 101.436 102.752 101.436 102.052C101.436 101.343 101.595 100.703 101.912 100.134C102.229 99.5647 102.663 99.1167 103.214 98.79C103.774 98.454 104.409 98.286 105.118 98.286C105.706 98.286 106.238 98.4213 106.714 98.692C107.199 98.9533 107.587 99.3173 107.876 99.784L107.68 100.134V98.454H108.954V105.678C108.954 106.331 108.8 106.915 108.492 107.428C108.184 107.941 107.755 108.343 107.204 108.632C106.663 108.931 106.042 109.08 105.342 109.08ZM105.244 104.558C105.692 104.558 106.093 104.446 106.448 104.222C106.812 103.998 107.101 103.699 107.316 103.326C107.531 102.943 107.638 102.519 107.638 102.052C107.638 101.595 107.531 101.175 107.316 100.792C107.101 100.409 106.812 100.106 106.448 99.882C106.093 99.658 105.692 99.546 105.244 99.546C104.787 99.546 104.371 99.658 103.998 99.882C103.625 100.106 103.331 100.409 103.116 100.792C102.911 101.165 102.808 101.585 102.808 102.052C102.808 102.519 102.911 102.943 103.116 103.326C103.331 103.699 103.62 103.998 103.984 104.222C104.357 104.446 104.777 104.558 105.244 104.558ZM111.112 106V98.454H112.414V106H111.112ZM111.112 97.25V95.57H112.414V97.25H111.112ZM117.277 106.168C116.521 106.168 115.863 105.981 115.303 105.608C114.743 105.235 114.346 104.731 114.113 104.096L115.149 103.592C115.363 104.04 115.657 104.395 116.031 104.656C116.404 104.917 116.819 105.048 117.277 105.048C117.687 105.048 118.028 104.95 118.299 104.754C118.569 104.558 118.705 104.301 118.705 103.984C118.705 103.76 118.639 103.583 118.509 103.452C118.387 103.312 118.238 103.205 118.061 103.13C117.883 103.046 117.72 102.985 117.571 102.948L116.437 102.626C115.755 102.43 115.256 102.15 114.939 101.786C114.631 101.422 114.477 100.997 114.477 100.512C114.477 100.064 114.589 99.6767 114.813 99.35C115.046 99.014 115.359 98.7527 115.751 98.566C116.152 98.3793 116.6 98.286 117.095 98.286C117.757 98.286 118.35 98.454 118.873 98.79C119.405 99.126 119.783 99.5973 120.007 100.204L118.943 100.694C118.775 100.302 118.523 99.994 118.187 99.77C117.851 99.5367 117.473 99.42 117.053 99.42C116.67 99.42 116.367 99.518 116.143 99.714C115.919 99.9007 115.807 100.139 115.807 100.428C115.807 100.643 115.863 100.82 115.975 100.96C116.087 101.091 116.222 101.193 116.381 101.268C116.539 101.333 116.693 101.389 116.843 101.436L118.075 101.8C118.691 101.977 119.167 102.253 119.503 102.626C119.848 102.999 120.021 103.447 120.021 103.97C120.021 104.39 119.904 104.768 119.671 105.104C119.437 105.44 119.115 105.701 118.705 105.888C118.294 106.075 117.818 106.168 117.277 106.168ZM124.931 106.084C124.194 106.084 123.624 105.874 123.223 105.454C122.831 105.034 122.635 104.441 122.635 103.676V99.7H121.263V98.454H121.543C121.879 98.454 122.145 98.3513 122.341 98.146C122.537 97.9407 122.635 97.67 122.635 97.334V96.718H123.937V98.454H125.631V99.7H123.937V103.634C123.937 103.886 123.974 104.105 124.049 104.292C124.133 104.479 124.268 104.628 124.455 104.74C124.642 104.843 124.889 104.894 125.197 104.894C125.262 104.894 125.342 104.889 125.435 104.88C125.538 104.871 125.631 104.861 125.715 104.852V106C125.594 106.028 125.458 106.047 125.309 106.056C125.16 106.075 125.034 106.084 124.931 106.084ZM130.823 106.168C130.095 106.168 129.446 105.995 128.877 105.65C128.307 105.305 127.859 104.833 127.533 104.236C127.206 103.629 127.043 102.953 127.043 102.206C127.043 101.45 127.201 100.778 127.519 100.19C127.845 99.602 128.284 99.14 128.835 98.804C129.395 98.4587 130.02 98.286 130.711 98.286C131.271 98.286 131.765 98.3887 132.195 98.594C132.633 98.79 133.002 99.0607 133.301 99.406C133.609 99.742 133.842 100.129 134.001 100.568C134.169 100.997 134.253 101.445 134.253 101.912C134.253 102.015 134.243 102.131 134.225 102.262C134.215 102.383 134.201 102.5 134.183 102.612H127.995V101.492H133.427L132.811 101.996C132.895 101.511 132.848 101.077 132.671 100.694C132.493 100.311 132.232 100.008 131.887 99.784C131.541 99.56 131.149 99.448 130.711 99.448C130.272 99.448 129.871 99.56 129.507 99.784C129.143 100.008 128.858 100.33 128.653 100.75C128.457 101.161 128.377 101.651 128.415 102.22C128.377 102.771 128.461 103.256 128.667 103.676C128.881 104.087 129.18 104.409 129.563 104.642C129.955 104.866 130.379 104.978 130.837 104.978C131.341 104.978 131.765 104.861 132.111 104.628C132.456 104.395 132.736 104.096 132.951 103.732L134.043 104.292C133.893 104.637 133.66 104.955 133.343 105.244C133.035 105.524 132.666 105.748 132.237 105.916C131.817 106.084 131.345 106.168 130.823 106.168ZM136.09 106V98.454H137.364V99.84L137.224 99.644C137.402 99.2147 137.672 98.8973 138.036 98.692C138.4 98.4773 138.844 98.37 139.366 98.37H139.828V99.602H139.17C138.638 99.602 138.209 99.77 137.882 100.106C137.556 100.433 137.392 100.899 137.392 101.506V106H136.09ZM144.597 106.168C143.869 106.168 143.22 105.995 142.651 105.65C142.082 105.305 141.634 104.833 141.307 104.236C140.98 103.629 140.817 102.953 140.817 102.206C140.817 101.45 140.976 100.778 141.293 100.19C141.62 99.602 142.058 99.14 142.609 98.804C143.169 98.4587 143.794 98.286 144.485 98.286C145.045 98.286 145.54 98.3887 145.969 98.594C146.408 98.79 146.776 99.0607 147.075 99.406C147.383 99.742 147.616 100.129 147.775 100.568C147.943 100.997 148.027 101.445 148.027 101.912C148.027 102.015 148.018 102.131 147.999 102.262C147.99 102.383 147.976 102.5 147.957 102.612H141.769V101.492H147.201L146.585 101.996C146.669 101.511 146.622 101.077 146.445 100.694C146.268 100.311 146.006 100.008 145.661 99.784C145.316 99.56 144.924 99.448 144.485 99.448C144.046 99.448 143.645 99.56 143.281 99.784C142.917 100.008 142.632 100.33 142.427 100.75C142.231 101.161 142.152 101.651 142.189 102.22C142.152 102.771 142.236 103.256 142.441 103.676C142.656 104.087 142.954 104.409 143.337 104.642C143.729 104.866 144.154 104.978 144.611 104.978C145.115 104.978 145.54 104.861 145.885 104.628C146.23 104.395 146.51 104.096 146.725 103.732L147.817 104.292C147.668 104.637 147.434 104.955 147.117 105.244C146.809 105.524 146.44 105.748 146.011 105.916C145.591 106.084 145.12 106.168 144.597 106.168ZM153.295 106.168C152.585 106.168 151.946 105.995 151.377 105.65C150.817 105.305 150.373 104.833 150.047 104.236C149.72 103.639 149.557 102.971 149.557 102.234C149.557 101.478 149.72 100.806 150.047 100.218C150.373 99.6207 150.817 99.1493 151.377 98.804C151.946 98.4587 152.585 98.286 153.295 98.286C153.92 98.286 154.475 98.4213 154.961 98.692C155.446 98.9533 155.829 99.308 156.109 99.756L155.899 100.078V95.402H157.215V106H155.941V104.39L156.109 104.614C155.847 105.109 155.465 105.491 154.961 105.762C154.466 106.033 153.911 106.168 153.295 106.168ZM153.407 104.908C153.883 104.908 154.307 104.791 154.681 104.558C155.054 104.325 155.348 104.007 155.563 103.606C155.787 103.195 155.899 102.738 155.899 102.234C155.899 101.721 155.787 101.263 155.563 100.862C155.348 100.451 155.054 100.129 154.681 99.896C154.307 99.6627 153.883 99.546 153.407 99.546C152.94 99.546 152.515 99.6673 152.133 99.91C151.759 100.143 151.465 100.461 151.251 100.862C151.036 101.254 150.929 101.711 150.929 102.234C150.929 102.738 151.036 103.195 151.251 103.606C151.465 104.007 151.759 104.325 152.133 104.558C152.506 104.791 152.931 104.908 153.407 104.908ZM161.93 106V98.454H163.232V106H161.93ZM161.93 97.25V95.57H163.232V97.25H161.93ZM165.392 106V98.454H166.666V99.924L166.456 99.798C166.643 99.322 166.941 98.9533 167.352 98.692C167.772 98.4213 168.262 98.286 168.822 98.286C169.363 98.286 169.844 98.4073 170.264 98.65C170.693 98.8927 171.029 99.2287 171.272 99.658C171.524 100.087 171.65 100.573 171.65 101.114V106H170.334V101.534C170.334 101.114 170.259 100.759 170.11 100.47C169.961 100.181 169.746 99.9567 169.466 99.798C169.195 99.63 168.883 99.546 168.528 99.546C168.173 99.546 167.856 99.63 167.576 99.798C167.305 99.9567 167.091 100.185 166.932 100.484C166.773 100.773 166.694 101.123 166.694 101.534V106H165.392ZM175.961 106V105.048L178.845 101.926C179.414 101.319 179.867 100.82 180.203 100.428C180.548 100.036 180.8 99.686 180.959 99.378C181.118 99.07 181.197 98.7433 181.197 98.398C181.197 97.8287 181.029 97.39 180.693 97.082C180.357 96.774 179.914 96.62 179.363 96.62C178.803 96.62 178.327 96.7833 177.935 97.11C177.543 97.4273 177.272 97.88 177.123 98.468L175.877 98.146C175.998 97.586 176.222 97.1007 176.549 96.69C176.876 96.2793 177.282 95.962 177.767 95.738C178.252 95.514 178.784 95.402 179.363 95.402C179.998 95.402 180.553 95.528 181.029 95.78C181.514 96.0227 181.892 96.3633 182.163 96.802C182.443 97.2407 182.583 97.7493 182.583 98.328C182.583 98.7107 182.504 99.084 182.345 99.448C182.186 99.812 181.953 100.199 181.645 100.61C181.337 101.011 180.936 101.478 180.441 102.01L177.865 104.81H182.807V106H175.961ZM188.808 106.168C187.977 106.168 187.249 105.944 186.624 105.496C186.008 105.039 185.527 104.409 185.182 103.606C184.836 102.794 184.664 101.851 184.664 100.778C184.664 99.7047 184.836 98.7667 185.182 97.964C185.527 97.152 186.008 96.522 186.624 96.074C187.24 95.626 187.963 95.402 188.794 95.402C189.624 95.402 190.348 95.626 190.964 96.074C191.58 96.522 192.06 97.152 192.406 97.964C192.76 98.7667 192.938 99.7047 192.938 100.778C192.938 101.851 192.765 102.794 192.42 103.606C192.074 104.418 191.589 105.048 190.964 105.496C190.348 105.944 189.629 106.168 188.808 106.168ZM188.808 104.894C189.368 104.894 189.853 104.726 190.264 104.39C190.674 104.045 190.992 103.564 191.216 102.948C191.449 102.332 191.566 101.609 191.566 100.778C191.566 99.9473 191.449 99.224 191.216 98.608C190.992 97.992 190.67 97.516 190.25 97.18C189.839 96.844 189.354 96.676 188.794 96.676C188.234 96.676 187.748 96.844 187.338 97.18C186.927 97.516 186.605 97.992 186.372 98.608C186.148 99.224 186.036 99.9473 186.036 100.778C186.036 101.599 186.148 102.318 186.372 102.934C186.605 103.55 186.927 104.031 187.338 104.376C187.758 104.721 188.248 104.894 188.808 104.894ZM194.753 106V105.048L197.637 101.926C198.206 101.319 198.659 100.82 198.995 100.428C199.34 100.036 199.592 99.686 199.751 99.378C199.909 99.07 199.989 98.7433 199.989 98.398C199.989 97.8287 199.821 97.39 199.485 97.082C199.149 96.774 198.705 96.62 198.155 96.62C197.595 96.62 197.119 96.7833 196.727 97.11C196.335 97.4273 196.064 97.88 195.915 98.468L194.669 98.146C194.79 97.586 195.014 97.1007 195.341 96.69C195.667 96.2793 196.073 95.962 196.559 95.738C197.044 95.514 197.576 95.402 198.155 95.402C198.789 95.402 199.345 95.528 199.821 95.78C200.306 96.0227 200.684 96.3633 200.955 96.802C201.235 97.2407 201.375 97.7493 201.375 98.328C201.375 98.7107 201.295 99.084 201.137 99.448C200.978 99.812 200.745 100.199 200.437 100.61C200.129 101.011 199.727 101.478 199.233 102.01L196.657 104.81H201.599V106H194.753ZM208.107 106V103.592H202.983V102.458L208.079 95.57H209.395V102.458H210.753V103.592H209.395V106H208.107ZM204.019 102.948L203.823 102.458H208.107V96.718L208.513 96.83L204.019 102.948ZM213.031 102.948L212.947 95.57H214.319L214.221 102.948H213.031ZM212.947 106V104.32H214.319V106H212.947Z" fill="#151304" fill-opacity="0.6"/>
<path d="M315 38C308.383 38 303 43.3832 303 50C303 56.6168 308.383 62 315 62C321.617 62 327 56.6168 327 50C327 43.3832 321.617 38 315 38ZM315 59.8182C309.586 59.8182 305.182 55.4137 305.182 50C305.182 44.5863 309.586 40.1818 315 40.1818C320.414 40.1818 324.818 44.5863 324.818 50C324.818 55.4137 320.414 59.8182 315 59.8182Z" fill="#9792E3"/>
<path d="M319.244 46.3151L313.424 52.4022L310.756 49.6123C310.355 49.1921 309.703 49.1921 309.301 49.6122C308.9 50.0325 308.9 50.7137 309.301 51.134L312.696 54.6848C312.889 54.8866 313.151 55 313.424 55H313.424C313.697 55 313.958 54.8866 314.151 54.6849L320.699 47.837C321.1 47.4167 321.1 46.7354 320.699 46.3152C320.297 45.895 319.645 45.8949 319.244 46.3151Z" fill="#9792E3"/>
<mask id="path-7-inside-2_3406_9308" fill="white">
<path d="M20 163C20 145.327 34.3269 131 52 131H323C340.673 131 355 145.327 355 163V240C355 257.673 340.673 272 323 272H52C34.3269 272 20 257.673 20 240V163Z"/>
</mask>
<path d="M20 163C20 145.327 34.3269 131 52 131H323C340.673 131 355 145.327 355 163V240C355 257.673 340.673 272 323 272H52C34.3269 272 20 257.673 20 240V163Z" fill="#E7F1DE"/>
<path d="M19.5 162.5C19.5 144.551 34.0507 130 52 130H323C340.949 130 355.5 144.551 355.5 162.5L354.5 163C354.5 145.879 340.397 132 323 132H52C34.603 132 20.5 145.879 20.5 163L19.5 162.5ZM355 272H20H355ZM52 272C34.0507 272 19.5 257.449 19.5 239.5V162.5C19.5 144.551 34.0507 130 52 130V132C34.603 132 20.5 145.879 20.5 163V240C20.5 257.673 34.603 272 52 272ZM323 130C340.949 130 355.5 144.551 355.5 162.5V239.5C355.5 257.449 340.949 272 323 272C340.397 272 354.5 257.673 354.5 240V163C354.5 145.879 340.397 132 323 132V130Z" fill="#0E986A" mask="url(#path-7-inside-2_3406_9308)"/>
<path d="M48.7461 201V174.516C48.2773 175.076 47.6328 175.531 46.8125 175.883C45.9922 176.221 45.2174 176.391 44.4883 176.391V170.902C45.1784 170.798 45.9206 170.577 46.7148 170.238C47.5091 169.887 48.2448 169.411 48.9219 168.812C49.612 168.201 50.1393 167.465 50.5039 166.605H56.0312V201H48.7461ZM66.7742 201.312C64.3914 201.312 62.5229 200.909 61.1687 200.102C59.8276 199.281 58.8771 198.051 58.3172 196.41C57.7703 194.77 57.4969 192.725 57.4969 190.277V180.98C57.4969 178.598 57.5945 176.495 57.7898 174.672C57.9982 172.849 58.4214 171.319 59.0594 170.082C59.6974 168.845 60.6479 167.908 61.9109 167.27C63.174 166.632 64.8602 166.312 66.9695 166.312C68.4148 166.312 69.7625 166.566 71.0125 167.074C72.2625 167.569 73.2716 168.318 74.0398 169.32C74.8081 170.31 75.1922 171.553 75.1922 173.051V176.762H68.5711V176.059C68.5711 175.486 68.5385 174.913 68.4734 174.34C68.4214 173.767 68.2781 173.292 68.0437 172.914C67.8094 172.536 67.4122 172.348 66.8523 172.348C66.0841 172.348 65.5503 172.562 65.2508 172.992C64.9513 173.409 64.8016 174.014 64.8016 174.809V181.703C65.1271 181.091 65.6154 180.603 66.2664 180.238C66.9174 179.861 67.7117 179.672 68.6492 179.672C70.5503 179.672 72.0086 180.056 73.0242 180.824C74.0529 181.579 74.7625 182.712 75.1531 184.223C75.5437 185.733 75.7391 187.621 75.7391 189.887C75.7391 192.178 75.4591 194.184 74.8992 195.902C74.3393 197.608 73.4018 198.936 72.0867 199.887C70.7846 200.837 69.0138 201.312 66.7742 201.312ZM66.5203 194.984C67.3276 194.984 67.8094 194.646 67.9656 193.969C68.1219 193.279 68.2 192.4 68.2 191.332V188.559C68.2 186.684 67.6727 185.746 66.618 185.746C65.407 185.746 64.8016 186.56 64.8016 188.188V192.445C64.8016 194.138 65.3745 194.984 66.5203 194.984ZM85.2906 201.312C82.387 201.312 80.1409 200.499 78.5523 198.871C76.9768 197.243 76.1891 194.9 76.1891 191.84V176.332C76.1891 173.103 76.9378 170.629 78.4352 168.91C79.9456 167.178 82.2307 166.312 85.2906 166.312C88.3635 166.312 90.6487 167.178 92.1461 168.91C93.6435 170.629 94.3922 173.103 94.3922 176.332V191.84C94.3922 194.9 93.6044 197.243 92.0289 198.871C90.4534 200.499 88.2073 201.312 85.2906 201.312ZM85.2906 194.984C85.8245 194.984 86.2411 194.743 86.5406 194.262C86.8401 193.78 86.9898 193.24 86.9898 192.641V175.668C86.9898 174.861 86.8987 174.158 86.7164 173.559C86.5471 172.947 86.0719 172.641 85.2906 172.641C84.5094 172.641 84.0276 172.947 83.8453 173.559C83.676 174.158 83.5914 174.861 83.5914 175.668V192.641C83.5914 193.24 83.7411 193.78 84.0406 194.262C84.3531 194.743 84.7698 194.984 85.2906 194.984ZM104.256 201.312C101.353 201.312 99.1065 200.499 97.518 198.871C95.9424 197.243 95.1547 194.9 95.1547 191.84V176.332C95.1547 173.103 95.9034 170.629 97.4008 168.91C98.9112 167.178 101.196 166.312 104.256 166.312C107.329 166.312 109.614 167.178 111.112 168.91C112.609 170.629 113.358 173.103 113.358 176.332V191.84C113.358 194.9 112.57 197.243 110.995 198.871C109.419 200.499 107.173 201.312 104.256 201.312ZM104.256 194.984C104.79 194.984 105.207 194.743 105.506 194.262C105.806 193.78 105.955 193.24 105.955 192.641V175.668C105.955 174.861 105.864 174.158 105.682 173.559C105.513 172.947 105.037 172.641 104.256 172.641C103.475 172.641 102.993 172.947 102.811 173.559C102.642 174.158 102.557 174.861 102.557 175.668V192.641C102.557 193.24 102.707 193.78 103.006 194.262C103.319 194.743 103.735 194.984 104.256 194.984ZM118.183 195.121V191.059H114.12V186.527H118.183V182.465H122.714V186.527H126.777V191.059H122.714V195.121H118.183Z" fill="#0E986A"/>
<path d="M46.9838 237V227.83H44.1558V226.57H51.1558V227.83H48.3698V237H46.9838ZM51.6303 237V229.454H52.9043V230.84L52.7643 230.644C52.9416 230.215 53.2123 229.897 53.5763 229.692C53.9403 229.477 54.3836 229.37 54.9063 229.37H55.3683V230.602H54.7103C54.1783 230.602 53.7489 230.77 53.4223 231.106C53.0956 231.433 52.9323 231.899 52.9323 232.506V237H51.6303ZM60.1368 237.168C59.4088 237.168 58.7601 236.995 58.1908 236.65C57.6215 236.305 57.1735 235.833 56.8468 235.236C56.5201 234.629 56.3568 233.953 56.3568 233.206C56.3568 232.45 56.5155 231.778 56.8328 231.19C57.1595 230.602 57.5981 230.14 58.1488 229.804C58.7088 229.459 59.3341 229.286 60.0248 229.286C60.5848 229.286 61.0795 229.389 61.5088 229.594C61.9475 229.79 62.3161 230.061 62.6148 230.406C62.9228 230.742 63.1561 231.129 63.3148 231.568C63.4828 231.997 63.5668 232.445 63.5668 232.912C63.5668 233.015 63.5575 233.131 63.5388 233.262C63.5295 233.383 63.5155 233.5 63.4968 233.612H57.3088V232.492H62.7408L62.1248 232.996C62.2088 232.511 62.1621 232.077 61.9848 231.694C61.8075 231.311 61.5461 231.008 61.2008 230.784C60.8555 230.56 60.4635 230.448 60.0248 230.448C59.5861 230.448 59.1848 230.56 58.8208 230.784C58.4568 231.008 58.1721 231.33 57.9668 231.75C57.7708 232.161 57.6915 232.651 57.7288 233.22C57.6915 233.771 57.7755 234.256 57.9808 234.676C58.1955 235.087 58.4941 235.409 58.8768 235.642C59.2688 235.866 59.6935 235.978 60.1508 235.978C60.6548 235.978 61.0795 235.861 61.4248 235.628C61.7701 235.395 62.0501 235.096 62.2648 234.732L63.3568 235.292C63.2075 235.637 62.9741 235.955 62.6568 236.244C62.3488 236.524 61.9801 236.748 61.5508 236.916C61.1308 237.084 60.6595 237.168 60.1368 237.168ZM68.8764 237.168C68.1484 237.168 67.4997 236.995 66.9304 236.65C66.3611 236.305 65.9131 235.833 65.5864 235.236C65.2597 234.629 65.0964 233.953 65.0964 233.206C65.0964 232.45 65.2551 231.778 65.5724 231.19C65.8991 230.602 66.3377 230.14 66.8884 229.804C67.4484 229.459 68.0737 229.286 68.7644 229.286C69.3244 229.286 69.8191 229.389 70.2484 229.594C70.6871 229.79 71.0557 230.061 71.3544 230.406C71.6624 230.742 71.8957 231.129 72.0544 231.568C72.2224 231.997 72.3064 232.445 72.3064 232.912C72.3064 233.015 72.2971 233.131 72.2784 233.262C72.2691 233.383 72.2551 233.5 72.2364 233.612H66.0484V232.492H71.4804L70.8644 232.996C70.9484 232.511 70.9017 232.077 70.7244 231.694C70.5471 231.311 70.2857 231.008 69.9404 230.784C69.5951 230.56 69.2031 230.448 68.7644 230.448C68.3257 230.448 67.9244 230.56 67.5604 230.784C67.1964 231.008 66.9117 231.33 66.7064 231.75C66.5104 232.161 66.4311 232.651 66.4684 233.22C66.4311 233.771 66.5151 234.256 66.7204 234.676C66.9351 235.087 67.2337 235.409 67.6164 235.642C68.0084 235.866 68.4331 235.978 68.8904 235.978C69.3944 235.978 69.8191 235.861 70.1644 235.628C70.5097 235.395 70.7897 235.096 71.0044 234.732L72.0964 235.292C71.9471 235.637 71.7137 235.955 71.3964 236.244C71.0884 236.524 70.7197 236.748 70.2904 236.916C69.8704 237.084 69.3991 237.168 68.8764 237.168ZM76.846 237.168C76.09 237.168 75.432 236.981 74.872 236.608C74.312 236.235 73.9153 235.731 73.682 235.096L74.718 234.592C74.9327 235.04 75.2267 235.395 75.6 235.656C75.9733 235.917 76.3887 236.048 76.846 236.048C77.2567 236.048 77.5973 235.95 77.868 235.754C78.1387 235.558 78.274 235.301 78.274 234.984C78.274 234.76 78.2087 234.583 78.078 234.452C77.9567 234.312 77.8073 234.205 77.63 234.13C77.4527 234.046 77.2893 233.985 77.14 233.948L76.006 233.626C75.3247 233.43 74.8253 233.15 74.508 232.786C74.2 232.422 74.046 231.997 74.046 231.512C74.046 231.064 74.158 230.677 74.382 230.35C74.6153 230.014 74.928 229.753 75.32 229.566C75.7213 229.379 76.1693 229.286 76.664 229.286C77.3267 229.286 77.9193 229.454 78.442 229.79C78.974 230.126 79.352 230.597 79.576 231.204L78.512 231.694C78.344 231.302 78.092 230.994 77.756 230.77C77.42 230.537 77.042 230.42 76.622 230.42C76.2393 230.42 75.936 230.518 75.712 230.714C75.488 230.901 75.376 231.139 75.376 231.428C75.376 231.643 75.432 231.82 75.544 231.96C75.656 232.091 75.7913 232.193 75.95 232.268C76.1087 232.333 76.2627 232.389 76.412 232.436L77.644 232.8C78.26 232.977 78.736 233.253 79.072 233.626C79.4173 233.999 79.59 234.447 79.59 234.97C79.59 235.39 79.4733 235.768 79.24 236.104C79.0067 236.44 78.6847 236.701 78.274 236.888C77.8633 237.075 77.3873 237.168 76.846 237.168ZM83.9943 239.8V229.454H85.2683V231.078L85.1003 230.756C85.3803 230.308 85.763 229.953 86.2483 229.692C86.7337 229.421 87.289 229.286 87.9143 229.286C88.6237 229.286 89.2583 229.459 89.8183 229.804C90.3877 230.149 90.8357 230.621 91.1623 231.218C91.489 231.806 91.6523 232.478 91.6523 233.234C91.6523 233.971 91.489 234.639 91.1623 235.236C90.8357 235.833 90.3877 236.305 89.8183 236.65C89.2583 236.995 88.619 237.168 87.9003 237.168C87.2937 237.168 86.7383 237.033 86.2343 236.762C85.7397 236.491 85.357 236.109 85.0863 235.614L85.2963 235.39V239.8H83.9943ZM87.8023 235.908C88.2783 235.908 88.703 235.791 89.0763 235.558C89.4497 235.325 89.739 235.007 89.9443 234.606C90.159 234.195 90.2663 233.738 90.2663 233.234C90.2663 232.711 90.159 232.254 89.9443 231.862C89.739 231.461 89.4497 231.143 89.0763 230.91C88.703 230.667 88.2783 230.546 87.8023 230.546C87.3263 230.546 86.897 230.663 86.5143 230.896C86.141 231.129 85.8423 231.451 85.6183 231.862C85.4037 232.263 85.2963 232.721 85.2963 233.234C85.2963 233.738 85.4037 234.195 85.6183 234.606C85.8423 235.007 86.141 235.325 86.5143 235.558C86.897 235.791 87.3263 235.908 87.8023 235.908ZM93.4996 237V226.402H94.8016V237H93.4996ZM99.1738 237.168C98.6792 237.168 98.2405 237.079 97.8578 236.902C97.4845 236.715 97.1905 236.463 96.9758 236.146C96.7612 235.819 96.6538 235.446 96.6538 235.026C96.6538 234.625 96.7378 234.265 96.9058 233.948C97.0832 233.621 97.3538 233.346 97.7178 233.122C98.0912 232.898 98.5578 232.739 99.1178 232.646L101.918 232.184V233.276L99.4118 233.696C98.9265 233.78 98.5718 233.934 98.3478 234.158C98.1332 234.382 98.0258 234.657 98.0258 234.984C98.0258 235.292 98.1472 235.549 98.3898 235.754C98.6418 235.959 98.9545 236.062 99.3278 236.062C99.8038 236.062 100.214 235.964 100.56 235.768C100.914 235.563 101.19 235.287 101.386 234.942C101.591 234.597 101.694 234.214 101.694 233.794V231.876C101.694 231.465 101.54 231.134 101.232 230.882C100.933 230.621 100.536 230.49 100.042 230.49C99.6125 230.49 99.2298 230.602 98.8938 230.826C98.5672 231.041 98.3245 231.33 98.1658 231.694L97.0318 231.106C97.1718 230.761 97.3958 230.453 97.7038 230.182C98.0118 229.902 98.3712 229.683 98.7818 229.524C99.1925 229.365 99.6218 229.286 100.07 229.286C100.648 229.286 101.157 229.398 101.596 229.622C102.034 229.837 102.375 230.14 102.618 230.532C102.87 230.915 102.996 231.363 102.996 231.876V237H101.722V235.572L101.96 235.656C101.801 235.955 101.586 236.216 101.316 236.44C101.045 236.664 100.728 236.841 100.364 236.972C99.9998 237.103 99.6032 237.168 99.1738 237.168ZM105.155 237V229.454H106.429V230.924L106.219 230.798C106.405 230.322 106.704 229.953 107.115 229.692C107.535 229.421 108.025 229.286 108.585 229.286C109.126 229.286 109.607 229.407 110.027 229.65C110.456 229.893 110.792 230.229 111.035 230.658C111.287 231.087 111.413 231.573 111.413 232.114V237H110.097V232.534C110.097 232.114 110.022 231.759 109.873 231.47C109.723 231.181 109.509 230.957 109.229 230.798C108.958 230.63 108.645 230.546 108.291 230.546C107.936 230.546 107.619 230.63 107.339 230.798C107.068 230.957 106.853 231.185 106.695 231.484C106.536 231.773 106.457 232.123 106.457 232.534V237H105.155ZM116.482 237.084C115.744 237.084 115.175 236.874 114.774 236.454C114.382 236.034 114.186 235.441 114.186 234.676V230.7H112.814V229.454H113.094C113.43 229.454 113.696 229.351 113.892 229.146C114.088 228.941 114.186 228.67 114.186 228.334V227.718H115.488V229.454H117.182V230.7H115.488V234.634C115.488 234.886 115.525 235.105 115.6 235.292C115.684 235.479 115.819 235.628 116.006 235.74C116.192 235.843 116.44 235.894 116.748 235.894C116.813 235.894 116.892 235.889 116.986 235.88C117.088 235.871 117.182 235.861 117.266 235.852V237C117.144 237.028 117.009 237.047 116.86 237.056C116.71 237.075 116.584 237.084 116.482 237.084ZM122.373 237.168C121.645 237.168 120.997 236.995 120.427 236.65C119.858 236.305 119.41 235.833 119.083 235.236C118.757 234.629 118.593 233.953 118.593 233.206C118.593 232.45 118.752 231.778 119.069 231.19C119.396 230.602 119.835 230.14 120.385 229.804C120.945 229.459 121.571 229.286 122.261 229.286C122.821 229.286 123.316 229.389 123.745 229.594C124.184 229.79 124.553 230.061 124.851 230.406C125.159 230.742 125.393 231.129 125.551 231.568C125.719 231.997 125.803 232.445 125.803 232.912C125.803 233.015 125.794 233.131 125.775 233.262C125.766 233.383 125.752 233.5 125.733 233.612H119.545V232.492H124.977L124.361 232.996C124.445 232.511 124.399 232.077 124.221 231.694C124.044 231.311 123.783 231.008 123.437 230.784C123.092 230.56 122.7 230.448 122.261 230.448C121.823 230.448 121.421 230.56 121.057 230.784C120.693 231.008 120.409 231.33 120.203 231.75C120.007 232.161 119.928 232.651 119.965 233.22C119.928 233.771 120.012 234.256 120.217 234.676C120.432 235.087 120.731 235.409 121.113 235.642C121.505 235.866 121.93 235.978 122.387 235.978C122.891 235.978 123.316 235.861 123.661 235.628C124.007 235.395 124.287 235.096 124.501 234.732L125.593 235.292C125.444 235.637 125.211 235.955 124.893 236.244C124.585 236.524 124.217 236.748 123.787 236.916C123.367 237.084 122.896 237.168 122.373 237.168ZM131.071 237.168C130.362 237.168 129.722 236.995 129.153 236.65C128.593 236.305 128.15 235.833 127.823 235.236C127.496 234.639 127.333 233.971 127.333 233.234C127.333 232.478 127.496 231.806 127.823 231.218C128.15 230.621 128.593 230.149 129.153 229.804C129.722 229.459 130.362 229.286 131.071 229.286C131.696 229.286 132.252 229.421 132.737 229.692C133.222 229.953 133.605 230.308 133.885 230.756L133.675 231.078V226.402H134.991V237H133.717V235.39L133.885 235.614C133.624 236.109 133.241 236.491 132.737 236.762C132.242 237.033 131.687 237.168 131.071 237.168ZM131.183 235.908C131.659 235.908 132.084 235.791 132.457 235.558C132.83 235.325 133.124 235.007 133.339 234.606C133.563 234.195 133.675 233.738 133.675 233.234C133.675 232.721 133.563 232.263 133.339 231.862C133.124 231.451 132.83 231.129 132.457 230.896C132.084 230.663 131.659 230.546 131.183 230.546C130.716 230.546 130.292 230.667 129.909 230.91C129.536 231.143 129.242 231.461 129.027 231.862C128.812 232.254 128.705 232.711 128.705 233.234C128.705 233.738 128.812 234.195 129.027 234.606C129.242 235.007 129.536 235.325 129.909 235.558C130.282 235.791 130.707 235.908 131.183 235.908Z" fill="#151304" fill-opacity="0.6"/>
<g clip-path="url(#clip0_3406_9308)">
<path d="M317.892 184.943L320.88 182.81L320.88 182.81C321.338 182.483 321.944 182.461 322.424 182.754L322.424 182.754C322.808 182.988 323.052 183.38 323.091 183.828M317.892 184.943L323.091 183.828M317.892 184.943L317.654 182.728L317.654 182.728C317.565 181.898 316.868 181.272 316.033 181.272C315.222 181.272 314.528 181.877 314.418 182.68L314.013 185.616L312.16 183.126C312.16 183.126 312.16 183.126 312.16 183.126C311.853 182.713 311.344 182.489 310.832 182.542L317.892 184.943ZM323.091 183.828C323.131 184.277 322.959 184.705 322.622 185.003L318.255 188.853M323.091 183.828L318.255 188.853M318.255 188.853C318.203 190.611 318.552 192.218 318.92 193.396C319.105 193.991 319.296 194.476 319.44 194.813C319.512 194.981 319.573 195.113 319.616 195.203C319.638 195.248 319.655 195.282 319.667 195.306L319.68 195.333C319.684 195.339 319.685 195.342 319.685 195.342L319.685 195.343C319.782 195.526 319.776 195.747 319.669 195.925C319.669 195.925 319.669 195.925 319.669 195.925L319.541 195.848C319.461 195.981 319.317 196.062 319.162 196.062H312.46C312.313 196.062 312.176 195.989 312.094 195.868C312.012 195.747 311.995 195.593 312.049 195.456L318.255 188.853ZM310.749 184.164L310.749 184.164L314.274 189.254C314.274 189.254 314.274 189.254 314.274 189.254C314.342 189.353 314.379 189.471 314.379 189.592C314.379 191.576 313.706 193.849 313.305 195.027H318.243C317.736 193.789 316.939 191.353 317.082 188.546C317.09 188.386 317.162 188.237 317.282 188.132M310.749 184.164L317.381 188.244M310.749 184.164C310.666 184.045 310.702 183.932 310.724 183.884L310.724 183.884M310.749 184.164L310.724 183.884M317.282 188.132L317.381 188.244M317.282 188.132L317.282 188.132L317.381 188.244M317.282 188.132L321.838 184.114M317.381 188.244L321.938 184.227M321.838 184.114L321.938 184.227M321.838 184.114C321.891 184.068 321.917 184.002 321.911 183.932L322.061 183.919M321.838 184.114L321.838 184.114L321.938 184.227M321.938 184.227L322.061 183.919M322.061 183.919L321.911 183.932C321.905 183.862 321.868 183.802 321.808 183.765C321.733 183.72 321.639 183.723 321.568 183.774M322.061 183.919L321.568 183.774M310.724 183.884C310.746 183.836 310.808 183.735 310.953 183.72L310.953 183.72M310.724 183.884L310.953 183.72M310.953 183.72C311.051 183.71 311.15 183.754 311.21 183.833L313.927 187.485L310.953 183.72ZM316.823 186.077L316.823 186.077L316.476 182.855C316.452 182.628 316.261 182.457 316.033 182.457C315.812 182.457 315.622 182.623 315.591 182.842L314.989 187.213C314.956 187.451 314.783 187.646 314.55 187.706C314.55 187.706 314.55 187.706 314.55 187.706L314.513 187.56L316.823 186.077ZM316.823 186.077C316.845 186.287 316.977 186.468 317.169 186.555C317.361 186.641 317.585 186.618 317.756 186.496L317.756 186.496M316.823 186.077L317.756 186.496M317.756 186.496L321.568 183.774L321.568 183.774M317.756 186.496L321.568 183.774M319.553 195.413C319.537 195.383 317.98 192.394 318.107 188.783L319.553 195.413ZM309.648 183.389C309.429 183.865 309.476 184.408 309.775 184.839L310.832 182.542C310.31 182.595 309.867 182.912 309.648 183.389L309.648 183.389ZM318.405 195.027C318.427 195.08 318.448 195.13 318.468 195.177H318.305L318.405 195.027Z" fill="#0E986A" stroke="#0E986A" stroke-width="0.3"/>
<path d="M310.334 188.749L310.334 188.749C307.791 188.546 305.719 186.731 305.253 184.348C303.33 183.84 301.971 182.162 301.971 180.194C301.971 179.151 302.361 178.158 303.056 177.382C302.591 176.84 302.325 176.15 302.325 175.433C302.325 173.944 303.418 172.713 304.879 172.443C305.585 170.162 307.796 168.559 310.301 168.559C310.7 168.559 311.097 168.599 311.485 168.679C312.243 166.927 314.039 165.755 316.046 165.755C317.841 165.755 319.472 166.682 320.344 168.162C320.741 168.067 321.148 168.018 321.561 168.018C323.742 168.018 325.67 169.386 326.336 171.349C328.027 171.399 329.398 172.741 329.398 174.397C329.398 174.922 329.263 175.425 329.004 175.874C329.593 176.718 329.913 177.72 329.913 178.744C329.913 180.923 328.507 182.828 326.433 183.57C326.599 184.657 326.327 185.734 325.648 186.653C324.697 187.939 323.065 188.768 321.48 188.768C321.319 188.768 321.158 188.761 320.999 188.746L321.016 188.558L320.999 188.746C320.652 188.713 320.397 188.406 320.429 188.059C320.462 187.712 320.768 187.458 321.115 187.49L321.116 187.49C321.236 187.501 321.358 187.507 321.48 187.507C322.653 187.507 323.926 186.861 324.633 185.903C325.038 185.356 325.439 184.471 325.085 183.319C325.085 183.319 325.085 183.319 325.085 183.319L325.265 183.263C325.229 183.146 325.244 183.02 325.305 182.913L310.334 188.749ZM310.334 188.749C310.68 188.777 310.985 188.518 311.013 188.171C311.041 187.824 310.782 187.52 310.434 187.492C308.323 187.323 306.648 185.746 306.438 183.757L306.438 183.757C306.408 183.473 306.192 183.245 305.91 183.2L305.91 183.2C304.351 182.95 303.232 181.681 303.232 180.194C303.232 179.298 303.646 178.449 304.373 177.866L304.373 177.866C304.527 177.742 304.615 177.553 304.609 177.356C304.603 177.158 304.505 176.974 304.343 176.86C303.859 176.517 303.586 175.997 303.586 175.433C303.586 174.481 304.375 173.69 305.403 173.65C305.691 173.639 305.934 173.434 305.995 173.153L305.995 173.153C306.41 171.228 308.216 169.82 310.301 169.82C310.775 169.82 311.244 169.892 311.694 170.035L311.694 170.035C311.857 170.087 312.034 170.07 312.184 169.989C312.335 169.908 312.446 169.769 312.492 169.604M310.334 188.749L312.311 169.554M325.544 182.52C327.38 182.087 328.652 180.531 328.652 178.744C328.652 177.846 328.339 177.002 327.744 176.303L327.744 176.303C327.546 176.07 327.543 175.728 327.738 175.492C328 175.175 328.137 174.797 328.137 174.397C328.137 173.421 327.294 172.609 326.237 172.609C326.143 172.609 326.047 172.616 325.952 172.629L325.951 172.629C325.624 172.675 325.315 172.461 325.246 172.136C324.895 170.488 323.35 169.28 321.561 169.28C321.105 169.28 320.659 169.357 320.234 169.509C319.922 169.62 319.577 169.472 319.444 169.168M325.544 182.52L319.617 169.092M325.544 182.52C325.544 182.52 325.544 182.52 325.544 182.52L325.587 182.703L325.544 182.52ZM319.444 169.168L319.617 169.092M319.444 169.168C319.444 169.168 319.444 169.168 319.444 169.168L319.617 169.092M319.444 169.168C318.873 167.865 317.542 167.016 316.046 167.016C314.376 167.016 312.919 168.086 312.492 169.604M319.617 169.092C319.014 167.717 317.612 166.828 316.046 166.828C314.298 166.828 312.762 167.949 312.311 169.554M312.492 169.604L312.311 169.554M312.492 169.604C312.492 169.604 312.492 169.604 312.492 169.604L312.311 169.554" fill="#0E986A" stroke="#0E986A" stroke-width="0.376471"/>
</g>
<mask id="path-13-inside-3_3406_9308" fill="white">
<path d="M20 294C20 276.327 34.3269 262 52 262H323C340.673 262 355 276.327 355 294V371C355 388.673 340.673 403 323 403H52C34.3269 403 20 388.673 20 371V294Z"/>
</mask>
<path d="M20 294C20 276.327 34.3269 262 52 262H323C340.673 262 355 276.327 355 294V371C355 388.673 340.673 403 323 403H52C34.3269 403 20 388.673 20 371V294Z" fill="#F9EBD5"/>
<path d="M19.5 293.5C19.5 275.551 34.0507 261 52 261H323C340.949 261 355.5 275.551 355.5 293.5L354.5 294C354.5 276.879 340.397 263 323 263H52C34.603 263 20.5 276.879 20.5 294L19.5 293.5ZM355 403H20H355ZM52 403C34.0507 403 19.5 388.449 19.5 370.5V293.5C19.5 275.551 34.0507 261 52 261V263C34.603 263 20.5 276.879 20.5 294V371C20.5 388.673 34.603 403 52 403ZM323 261C340.949 261 355.5 275.551 355.5 293.5V370.5C355.5 388.449 340.949 403 323 403C340.397 403 354.5 388.673 354.5 371V294C354.5 276.879 340.397 263 323 263V261Z" fill="#E88427" mask="url(#path-13-inside-3_3406_9308)"/>
<path d="M48.7461 332V305.516C48.2773 306.076 47.6328 306.531 46.8125 306.883C45.9922 307.221 45.2174 307.391 44.4883 307.391V301.902C45.1784 301.798 45.9206 301.577 46.7148 301.238C47.5091 300.887 48.2448 300.411 48.9219 299.812C49.612 299.201 50.1393 298.465 50.5039 297.605H56.0312V332H48.7461ZM74.5484 332.312C72.0615 332.312 70.0562 331.538 68.5328 329.988C67.0224 328.439 66.2672 326.271 66.2672 323.484V307.625C66.2672 304.292 66.9247 301.74 68.2398 299.969C69.568 298.198 71.7229 297.312 74.7047 297.312C76.3323 297.312 77.7776 297.612 79.0406 298.211C80.3167 298.81 81.3193 299.708 82.0484 300.906C82.7776 302.091 83.1422 303.589 83.1422 305.398V311.336H76.3062V306.258C76.3062 305.229 76.176 304.539 75.9156 304.188C75.6552 303.823 75.2516 303.641 74.7047 303.641C74.0667 303.641 73.637 303.875 73.4156 304.344C73.1943 304.799 73.0836 305.411 73.0836 306.18V323.387C73.0836 324.337 73.2203 325.008 73.4937 325.398C73.7802 325.789 74.1839 325.984 74.7047 325.984C75.2906 325.984 75.7008 325.743 75.9352 325.262C76.1826 324.78 76.3062 324.155 76.3062 323.387V317.195H83.2203V323.699C83.2203 326.72 82.4586 328.914 80.9352 330.281C79.4117 331.635 77.2828 332.312 74.5484 332.312ZM84.725 332V297.625H95.2719C97.0297 297.625 98.3578 298.029 99.2562 298.836C100.155 299.63 100.754 300.75 101.053 302.195C101.366 303.628 101.522 305.314 101.522 307.254C101.522 309.129 101.281 310.626 100.799 311.746C100.33 312.866 99.4385 313.641 98.1234 314.07C99.2042 314.292 99.9594 314.832 100.389 315.691C100.832 316.538 101.053 317.638 101.053 318.992V332H94.2758V318.543C94.2758 317.54 94.0674 316.922 93.6508 316.688C93.2471 316.44 92.5896 316.316 91.6781 316.316V332H84.725ZM91.7172 310.359H93.3773C94.3279 310.359 94.8031 309.324 94.8031 307.254C94.8031 305.913 94.699 305.034 94.4906 304.617C94.2823 304.201 93.8917 303.992 93.3187 303.992H91.7172V310.359ZM106.308 326.121V322.059H102.245V317.527H106.308V313.465H110.839V317.527H114.902V322.059H110.839V326.121H106.308Z" fill="#E88427"/>
<path d="M49.2224 368.168C48.5597 368.168 47.9531 368.047 47.4024 367.804C46.8517 367.552 46.3851 367.211 46.0024 366.782C45.6197 366.353 45.3444 365.872 45.1764 365.34L46.3664 364.85C46.6184 365.522 46.9917 366.04 47.4864 366.404C47.9904 366.759 48.5784 366.936 49.2504 366.936C49.6611 366.936 50.0204 366.871 50.3284 366.74C50.6364 366.609 50.8744 366.427 51.0424 366.194C51.2197 365.951 51.3084 365.671 51.3084 365.354C51.3084 364.915 51.1824 364.57 50.9304 364.318C50.6877 364.057 50.3284 363.861 49.8524 363.73L47.9344 363.142C47.1784 362.909 46.5997 362.54 46.1984 362.036C45.7971 361.532 45.5964 360.953 45.5964 360.3C45.5964 359.731 45.7317 359.231 46.0024 358.802C46.2824 358.363 46.6651 358.023 47.1504 357.78C47.6451 357.528 48.2051 357.402 48.8304 357.402C49.4557 357.402 50.0204 357.514 50.5244 357.738C51.0377 357.962 51.4717 358.265 51.8264 358.648C52.1811 359.021 52.4424 359.451 52.6104 359.936L51.4344 360.426C51.2104 359.838 50.8744 359.395 50.4264 359.096C49.9784 358.788 49.4511 358.634 48.8444 358.634C48.4711 358.634 48.1397 358.699 47.8504 358.83C47.5704 358.951 47.3511 359.133 47.1924 359.376C47.0431 359.609 46.9684 359.889 46.9684 360.216C46.9684 360.599 47.0897 360.939 47.3324 361.238C47.5751 361.537 47.9437 361.765 48.4384 361.924L50.1884 362.442C51.0097 362.694 51.6304 363.053 52.0504 363.52C52.4704 363.987 52.6804 364.565 52.6804 365.256C52.6804 365.825 52.5311 366.329 52.2324 366.768C51.9431 367.207 51.5371 367.552 51.0144 367.804C50.5011 368.047 49.9037 368.168 49.2224 368.168ZM57.7412 368.084C57.0039 368.084 56.4345 367.874 56.0332 367.454C55.6412 367.034 55.4452 366.441 55.4452 365.676V361.7H54.0732V360.454H54.3532C54.6892 360.454 54.9552 360.351 55.1512 360.146C55.3472 359.941 55.4452 359.67 55.4452 359.334V358.718H56.7472V360.454H58.4412V361.7H56.7472V365.634C56.7472 365.886 56.7845 366.105 56.8592 366.292C56.9432 366.479 57.0785 366.628 57.2652 366.74C57.4519 366.843 57.6992 366.894 58.0072 366.894C58.0725 366.894 58.1519 366.889 58.2452 366.88C58.3479 366.871 58.4412 366.861 58.5252 366.852V368C58.4039 368.028 58.2685 368.047 58.1192 368.056C57.9699 368.075 57.8439 368.084 57.7412 368.084ZM63.6329 368.168C62.9049 368.168 62.2562 367.995 61.6869 367.65C61.1176 367.305 60.6696 366.833 60.3429 366.236C60.0162 365.629 59.8529 364.953 59.8529 364.206C59.8529 363.45 60.0116 362.778 60.3289 362.19C60.6556 361.602 61.0942 361.14 61.6449 360.804C62.2049 360.459 62.8302 360.286 63.5209 360.286C64.0809 360.286 64.5756 360.389 65.0049 360.594C65.4436 360.79 65.8122 361.061 66.1109 361.406C66.4189 361.742 66.6522 362.129 66.8109 362.568C66.9789 362.997 67.0629 363.445 67.0629 363.912C67.0629 364.015 67.0536 364.131 67.0349 364.262C67.0256 364.383 67.0116 364.5 66.9929 364.612H60.8049V363.492H66.2369L65.6209 363.996C65.7049 363.511 65.6582 363.077 65.4809 362.694C65.3036 362.311 65.0422 362.008 64.6969 361.784C64.3516 361.56 63.9596 361.448 63.5209 361.448C63.0822 361.448 62.6809 361.56 62.3169 361.784C61.9529 362.008 61.6682 362.33 61.4629 362.75C61.2669 363.161 61.1876 363.651 61.2249 364.22C61.1876 364.771 61.2716 365.256 61.4769 365.676C61.6916 366.087 61.9902 366.409 62.3729 366.642C62.7649 366.866 63.1896 366.978 63.6469 366.978C64.1509 366.978 64.5756 366.861 64.9209 366.628C65.2662 366.395 65.5462 366.096 65.7609 365.732L66.8529 366.292C66.7036 366.637 66.4702 366.955 66.1529 367.244C65.8449 367.524 65.4762 367.748 65.0469 367.916C64.6269 368.084 64.1556 368.168 63.6329 368.168ZM68.9005 370.8V360.454H70.1745V362.078L70.0065 361.756C70.2865 361.308 70.6692 360.953 71.1545 360.692C71.6398 360.421 72.1952 360.286 72.8205 360.286C73.5298 360.286 74.1645 360.459 74.7245 360.804C75.2938 361.149 75.7418 361.621 76.0685 362.218C76.3952 362.806 76.5585 363.478 76.5585 364.234C76.5585 364.971 76.3952 365.639 76.0685 366.236C75.7418 366.833 75.2938 367.305 74.7245 367.65C74.1645 367.995 73.5252 368.168 72.8065 368.168C72.1998 368.168 71.6445 368.033 71.1405 367.762C70.6458 367.491 70.2632 367.109 69.9925 366.614L70.2025 366.39V370.8H68.9005ZM72.7085 366.908C73.1845 366.908 73.6092 366.791 73.9825 366.558C74.3558 366.325 74.6452 366.007 74.8505 365.606C75.0652 365.195 75.1725 364.738 75.1725 364.234C75.1725 363.711 75.0652 363.254 74.8505 362.862C74.6452 362.461 74.3558 362.143 73.9825 361.91C73.6092 361.667 73.1845 361.546 72.7085 361.546C72.2325 361.546 71.8032 361.663 71.4205 361.896C71.0472 362.129 70.7485 362.451 70.5245 362.862C70.3098 363.263 70.2025 363.721 70.2025 364.234C70.2025 364.738 70.3098 365.195 70.5245 365.606C70.7485 366.007 71.0472 366.325 71.4205 366.558C71.8032 366.791 72.2325 366.908 72.7085 366.908ZM81.1077 368.168C80.3517 368.168 79.6937 367.981 79.1337 367.608C78.5737 367.235 78.1771 366.731 77.9437 366.096L78.9797 365.592C79.1944 366.04 79.4884 366.395 79.8617 366.656C80.2351 366.917 80.6504 367.048 81.1077 367.048C81.5184 367.048 81.8591 366.95 82.1297 366.754C82.4004 366.558 82.5357 366.301 82.5357 365.984C82.5357 365.76 82.4704 365.583 82.3397 365.452C82.2184 365.312 82.0691 365.205 81.8917 365.13C81.7144 365.046 81.5511 364.985 81.4017 364.948L80.2677 364.626C79.5864 364.43 79.0871 364.15 78.7697 363.786C78.4617 363.422 78.3077 362.997 78.3077 362.512C78.3077 362.064 78.4197 361.677 78.6437 361.35C78.8771 361.014 79.1897 360.753 79.5817 360.566C79.9831 360.379 80.4311 360.286 80.9257 360.286C81.5884 360.286 82.1811 360.454 82.7037 360.79C83.2357 361.126 83.6137 361.597 83.8377 362.204L82.7737 362.694C82.6057 362.302 82.3537 361.994 82.0177 361.77C81.6817 361.537 81.3037 361.42 80.8837 361.42C80.5011 361.42 80.1977 361.518 79.9737 361.714C79.7497 361.901 79.6377 362.139 79.6377 362.428C79.6377 362.643 79.6937 362.82 79.8057 362.96C79.9177 363.091 80.0531 363.193 80.2117 363.268C80.3704 363.333 80.5244 363.389 80.6737 363.436L81.9057 363.8C82.5217 363.977 82.9977 364.253 83.3337 364.626C83.6791 364.999 83.8517 365.447 83.8517 365.97C83.8517 366.39 83.7351 366.768 83.5017 367.104C83.2684 367.44 82.9464 367.701 82.5357 367.888C82.1251 368.075 81.6491 368.168 81.1077 368.168ZM88.256 370.8V360.454H89.53V362.078L89.362 361.756C89.642 361.308 90.0247 360.953 90.51 360.692C90.9954 360.421 91.5507 360.286 92.176 360.286C92.8854 360.286 93.52 360.459 94.08 360.804C94.6494 361.149 95.0974 361.621 95.424 362.218C95.7507 362.806 95.914 363.478 95.914 364.234C95.914 364.971 95.7507 365.639 95.424 366.236C95.0974 366.833 94.6494 367.305 94.08 367.65C93.52 367.995 92.8807 368.168 92.162 368.168C91.5554 368.168 91 368.033 90.496 367.762C90.0014 367.491 89.6187 367.109 89.348 366.614L89.558 366.39V370.8H88.256ZM92.064 366.908C92.54 366.908 92.9647 366.791 93.338 366.558C93.7114 366.325 94.0007 366.007 94.206 365.606C94.4207 365.195 94.528 364.738 94.528 364.234C94.528 363.711 94.4207 363.254 94.206 362.862C94.0007 362.461 93.7114 362.143 93.338 361.91C92.9647 361.667 92.54 361.546 92.064 361.546C91.588 361.546 91.1587 361.663 90.776 361.896C90.4027 362.129 90.104 362.451 89.88 362.862C89.6654 363.263 89.558 363.721 89.558 364.234C89.558 364.738 89.6654 365.195 89.88 365.606C90.104 366.007 90.4027 366.325 90.776 366.558C91.1587 366.791 91.588 366.908 92.064 366.908ZM101.233 368.168C100.505 368.168 99.8566 367.995 99.2873 367.65C98.7179 367.305 98.2699 366.833 97.9433 366.236C97.6166 365.629 97.4533 364.953 97.4533 364.206C97.4533 363.45 97.6119 362.778 97.9293 362.19C98.2559 361.602 98.6946 361.14 99.2453 360.804C99.8053 360.459 100.431 360.286 101.121 360.286C101.681 360.286 102.176 360.389 102.605 360.594C103.044 360.79 103.413 361.061 103.711 361.406C104.019 361.742 104.253 362.129 104.411 362.568C104.579 362.997 104.663 363.445 104.663 363.912C104.663 364.015 104.654 364.131 104.635 364.262C104.626 364.383 104.612 364.5 104.593 364.612H98.4053V363.492H103.837L103.221 363.996C103.305 363.511 103.259 363.077 103.081 362.694C102.904 362.311 102.643 362.008 102.297 361.784C101.952 361.56 101.56 361.448 101.121 361.448C100.683 361.448 100.281 361.56 99.9173 361.784C99.5533 362.008 99.2686 362.33 99.0633 362.75C98.8673 363.161 98.7879 363.651 98.8253 364.22C98.7879 364.771 98.8719 365.256 99.0773 365.676C99.2919 366.087 99.5906 366.409 99.9733 366.642C100.365 366.866 100.79 366.978 101.247 366.978C101.751 366.978 102.176 366.861 102.521 366.628C102.867 366.395 103.147 366.096 103.361 365.732L104.453 366.292C104.304 366.637 104.071 366.955 103.753 367.244C103.445 367.524 103.077 367.748 102.647 367.916C102.227 368.084 101.756 368.168 101.233 368.168ZM106.501 368V360.454H107.775V361.84L107.635 361.644C107.812 361.215 108.083 360.897 108.447 360.692C108.811 360.477 109.254 360.37 109.777 360.37H110.239V361.602H109.581C109.049 361.602 108.62 361.77 108.293 362.106C107.966 362.433 107.803 362.899 107.803 363.506V368H106.501ZM117.525 368.168C116.816 368.168 116.177 367.995 115.607 367.65C115.047 367.305 114.604 366.833 114.277 366.236C113.951 365.639 113.787 364.971 113.787 364.234C113.787 363.478 113.951 362.806 114.277 362.218C114.604 361.621 115.047 361.149 115.607 360.804C116.177 360.459 116.816 360.286 117.525 360.286C118.151 360.286 118.706 360.421 119.191 360.692C119.677 360.953 120.059 361.308 120.339 361.756L120.129 362.078V357.402H121.445V368H120.171V366.39L120.339 366.614C120.078 367.109 119.695 367.491 119.191 367.762C118.697 368.033 118.141 368.168 117.525 368.168ZM117.637 366.908C118.113 366.908 118.538 366.791 118.911 366.558C119.285 366.325 119.579 366.007 119.793 365.606C120.017 365.195 120.129 364.738 120.129 364.234C120.129 363.721 120.017 363.263 119.793 362.862C119.579 362.451 119.285 362.129 118.911 361.896C118.538 361.663 118.113 361.546 117.637 361.546C117.171 361.546 116.746 361.667 116.363 361.91C115.99 362.143 115.696 362.461 115.481 362.862C115.267 363.254 115.159 363.711 115.159 364.234C115.159 364.738 115.267 365.195 115.481 365.606C115.696 366.007 115.99 366.325 116.363 366.558C116.737 366.791 117.161 366.908 117.637 366.908ZM125.813 368.168C125.318 368.168 124.879 368.079 124.497 367.902C124.123 367.715 123.829 367.463 123.615 367.146C123.4 366.819 123.293 366.446 123.293 366.026C123.293 365.625 123.377 365.265 123.545 364.948C123.722 364.621 123.993 364.346 124.357 364.122C124.73 363.898 125.197 363.739 125.757 363.646L128.557 363.184V364.276L126.051 364.696C125.565 364.78 125.211 364.934 124.987 365.158C124.772 365.382 124.665 365.657 124.665 365.984C124.665 366.292 124.786 366.549 125.029 366.754C125.281 366.959 125.593 367.062 125.967 367.062C126.443 367.062 126.853 366.964 127.199 366.768C127.553 366.563 127.829 366.287 128.025 365.942C128.23 365.597 128.333 365.214 128.333 364.794V362.876C128.333 362.465 128.179 362.134 127.871 361.882C127.572 361.621 127.175 361.49 126.681 361.49C126.251 361.49 125.869 361.602 125.533 361.826C125.206 362.041 124.963 362.33 124.805 362.694L123.671 362.106C123.811 361.761 124.035 361.453 124.343 361.182C124.651 360.902 125.01 360.683 125.421 360.524C125.831 360.365 126.261 360.286 126.709 360.286C127.287 360.286 127.796 360.398 128.235 360.622C128.673 360.837 129.014 361.14 129.257 361.532C129.509 361.915 129.635 362.363 129.635 362.876V368H128.361V366.572L128.599 366.656C128.44 366.955 128.225 367.216 127.955 367.44C127.684 367.664 127.367 367.841 127.003 367.972C126.639 368.103 126.242 368.168 125.813 368.168ZM132.199 371.08C132.031 371.08 131.863 371.066 131.695 371.038C131.527 371.01 131.369 370.963 131.219 370.898V369.736C131.322 369.755 131.448 369.773 131.597 369.792C131.756 369.82 131.91 369.834 132.059 369.834C132.498 369.834 132.829 369.736 133.053 369.54C133.287 369.353 133.506 369.027 133.711 368.56L134.187 367.426L134.159 368.56L130.939 360.454H132.353L134.859 366.894H134.439L136.931 360.454H138.373L134.971 368.896C134.813 369.297 134.607 369.661 134.355 369.988C134.113 370.324 133.814 370.59 133.459 370.786C133.105 370.982 132.685 371.08 132.199 371.08Z" fill="#151304" fill-opacity="0.6"/>
<g clip-path="url(#clip1_3406_9308)">
<path d="M317.043 318.27L317.043 318.27L324.866 320.042C325.255 320.13 325.499 320.515 325.414 320.905M317.043 318.27L325.316 320.883M317.043 318.27C316.688 318.189 316.328 318.384 316.202 318.725L316.202 318.725C315.433 320.809 315.191 322.697 315.457 324.224C315.724 325.753 316.502 326.922 317.769 327.55C318.507 327.915 319.253 328.1 319.979 328.1C320.471 328.1 320.953 328.015 321.416 327.844L321.416 327.844C322.477 327.45 323.373 326.609 323.94 325.479M317.043 318.27L323.851 325.434M325.414 320.905L325.316 320.883M325.414 320.905C325.414 320.905 325.414 320.905 325.414 320.905L325.316 320.883M325.414 320.905C324.999 322.791 324.641 324.084 323.94 325.479M325.316 320.883C324.902 322.767 324.546 324.051 323.851 325.434M323.94 325.479L323.851 325.434M323.94 325.479C323.94 325.479 323.94 325.479 323.94 325.479L323.851 325.434M317.356 319.827L323.839 321.296C323.509 322.706 323.188 323.746 322.645 324.828C322.211 325.691 321.58 326.256 320.849 326.501C320.118 326.747 319.276 326.677 318.413 326.25C317.519 325.808 316.987 324.951 316.844 323.676C316.722 322.596 316.902 321.248 317.356 319.827Z" fill="#E88427" stroke="#E88427" stroke-width="0.2"/>
<path d="M316.026 316.411L316.026 316.411L316.056 316.769L316.056 316.769C316.082 317.084 316.31 317.346 316.618 317.416L316.618 317.416L325.423 319.411L325.423 319.411C325.477 319.423 325.53 319.429 325.583 319.429C325.899 319.429 326.188 319.221 326.279 318.905C326.446 318.332 326.883 316.822 327.272 315.969C329.1 311.96 329.086 307.18 327.219 304.071C326.129 302.256 324.539 301.227 322.621 301.109C319.58 300.921 317.296 303.489 316.453 305.924C315.662 308.211 315.367 311.045 315.703 313.15C315.817 313.862 315.938 315.332 316.026 316.411ZM317.135 312.922L317.135 312.922C316.834 311.041 317.104 308.478 317.823 306.398L317.73 306.366L317.823 306.398C318.172 305.39 318.81 304.393 319.632 303.667C320.455 302.941 321.455 302.489 322.532 302.556L322.532 302.556C324.319 302.666 325.389 303.84 325.976 304.818L326.062 304.766L325.976 304.818C327.573 307.477 327.572 311.817 325.953 315.367C325.647 316.038 325.34 316.981 325.08 317.846L317.457 316.119C317.365 314.995 317.252 313.652 317.135 312.922Z" fill="#E88427" stroke="#E88427" stroke-width="0.2"/>
<path d="M305.133 314.843L305.133 314.843C304.744 314.931 304.499 315.316 304.585 315.706L304.585 315.706C305 317.592 305.358 318.885 306.059 320.28C306.626 321.41 307.521 322.251 308.583 322.644C309.046 322.815 309.527 322.901 310.02 322.901C310.746 322.901 311.492 322.715 312.229 322.35L312.185 322.261L312.229 322.35C313.496 321.723 314.275 320.554 314.541 319.025C314.808 317.498 314.566 315.61 313.797 313.526C313.671 313.185 313.311 312.99 312.956 313.07C312.956 313.07 312.956 313.07 312.956 313.07L305.133 314.843ZM311.586 321.051C310.723 321.478 309.881 321.548 309.15 321.302C308.419 321.056 307.788 320.492 307.354 319.629C306.811 318.547 306.49 317.507 306.16 316.097L312.643 314.628C313.097 316.048 313.277 317.397 313.155 318.477C313.012 319.752 312.48 320.609 311.586 321.051Z" fill="#E88427" stroke="#E88427" stroke-width="0.2"/>
<path d="M312.962 307.738L312.863 307.722C313.164 305.842 312.895 303.279 312.175 301.199C311.837 300.224 311.23 299.259 310.446 298.54C309.662 297.82 308.708 297.35 307.675 297.35C307.606 297.35 307.536 297.353 307.466 297.357L312.962 307.738ZM312.962 307.738L312.863 307.722C312.746 308.453 312.633 309.796 312.541 310.92L304.918 312.647C304.658 311.782 304.351 310.839 304.045 310.168L304.045 310.168M312.962 307.738L304.045 310.168M304.045 310.168C302.426 306.618 302.425 302.278 304.022 299.619L304.022 299.619M304.045 310.168L304.022 299.619M304.022 299.619C304.609 298.64 305.68 297.467 307.466 297.357L304.022 299.619ZM313.942 311.57L313.942 311.569L313.972 311.212L313.972 311.212C314.06 310.133 314.181 308.662 314.295 307.951C314.632 305.846 314.336 303.011 313.545 300.725C312.702 298.289 310.417 295.723 307.377 295.91L307.377 295.91C305.459 296.028 303.869 297.057 302.779 298.872C300.912 301.981 300.898 306.761 302.726 310.77C303.115 311.623 303.552 313.132 303.719 313.706C303.81 314.022 304.099 314.23 304.415 314.23C304.468 314.23 304.522 314.224 304.575 314.211L313.38 312.217L313.38 312.217C313.689 312.147 313.916 311.885 313.942 311.57Z" fill="#E88427" stroke="#E88427" stroke-width="0.2"/>
</g>
<defs>
<clipPath id="clip0_3406_9308">
<rect width="30.1176" height="32" fill="white" transform="translate(300.882 165)"/>
</clipPath>
<clipPath id="clip1_3406_9308">
<rect width="32" height="32" fill="white" transform="translate(299 296)"/>
</clipPath>
</defs>
</svg>
