<svg width="14" height="14" viewBox="0 0 14 14" fill="none" xmlns="http://www.w3.org/2000/svg">
<path d="M11.3753 8.375C11.3764 8.55338 11.3222 8.72772 11.2201 8.87404C11.1181 9.02035 10.9732 9.13144 10.8054 9.19203L7.98082 10.2311L6.94175 13.0535C6.88022 13.2207 6.7689 13.3649 6.6228 13.4669C6.4767 13.5688 6.30285 13.6234 6.12472 13.6234C5.94659 13.6234 5.77275 13.5688 5.62665 13.4669C5.48055 13.3649 5.36922 13.2207 5.30769 13.0535L4.2659 10.2344L1.44293 9.19531C1.27576 9.13378 1.1315 9.02245 1.02959 8.87635C0.927685 8.73025 0.873047 8.55641 0.873047 8.37828C0.873047 8.20015 0.927685 8.02631 1.02959 7.88021C1.1315 7.73411 1.27576 7.62278 1.44293 7.56125L4.26754 6.52219L5.3066 3.69977C5.36813 3.5326 5.47946 3.38833 5.62556 3.28643C5.77166 3.18452 5.9455 3.12989 6.12363 3.12989C6.30176 3.12989 6.4756 3.18452 6.6217 3.28643C6.7678 3.38833 6.87913 3.5326 6.94066 3.69977L7.97972 6.52437L10.8021 7.56344C10.9697 7.62317 11.1146 7.7332 11.2172 7.87847C11.3198 8.02374 11.375 8.19716 11.3753 8.375ZM8.31277 3.125H9.18777V4C9.18777 4.11603 9.23386 4.22731 9.31591 4.30936C9.39796 4.39141 9.50924 4.4375 9.62527 4.4375C9.7413 4.4375 9.85258 4.39141 9.93463 4.30936C10.0167 4.22731 10.0628 4.11603 10.0628 4V3.125H10.9378C11.0538 3.125 11.1651 3.07891 11.2471 2.99686C11.3292 2.91481 11.3753 2.80353 11.3753 2.6875C11.3753 2.57147 11.3292 2.46019 11.2471 2.37814C11.1651 2.29609 11.0538 2.25 10.9378 2.25H10.0628V1.375C10.0628 1.25897 10.0167 1.14769 9.93463 1.06564C9.85258 0.983594 9.7413 0.9375 9.62527 0.9375C9.50924 0.9375 9.39796 0.983594 9.31591 1.06564C9.23386 1.14769 9.18777 1.25897 9.18777 1.375V2.25H8.31277C8.19674 2.25 8.08546 2.29609 8.00341 2.37814C7.92136 2.46019 7.87527 2.57147 7.87527 2.6875C7.87527 2.80353 7.92136 2.91481 8.00341 2.99686C8.08546 3.07891 8.19674 3.125 8.31277 3.125ZM13.1253 4.875H12.6878V4.4375C12.6878 4.32147 12.6417 4.21019 12.5596 4.12814C12.4776 4.04609 12.3663 4 12.2503 4C12.1342 4 12.023 4.04609 11.9409 4.12814C11.8589 4.21019 11.8128 4.32147 11.8128 4.4375V4.875H11.3753C11.2592 4.875 11.148 4.92109 11.0659 5.00314C10.9839 5.08519 10.9378 5.19647 10.9378 5.3125C10.9378 5.42853 10.9839 5.53981 11.0659 5.62186C11.148 5.70391 11.2592 5.75 11.3753 5.75H11.8128V6.1875C11.8128 6.30353 11.8589 6.41481 11.9409 6.49686C12.023 6.57891 12.1342 6.625 12.2503 6.625C12.3663 6.625 12.4776 6.57891 12.5596 6.49686C12.6417 6.41481 12.6878 6.30353 12.6878 6.1875V5.75H13.1253C13.2413 5.75 13.3526 5.70391 13.4346 5.62186C13.5167 5.53981 13.5628 5.42853 13.5628 5.3125C13.5628 5.19647 13.5167 5.08519 13.4346 5.00314C13.3526 4.92109 13.2413 4.875 13.1253 4.875Z" fill="white"/>
</svg>
