<svg width="1240" height="164" viewBox="0 0 1240 164" fill="none" xmlns="http://www.w3.org/2000/svg">
<mask id="path-1-inside-1_3419_5168" fill="white">
<path d="M0 32C0 14.3269 14.3269 0 32 0H388C405.673 0 420 14.3269 420 32V132C420 149.673 405.673 164 388 164H32C14.3269 164 0 149.673 0 132V32Z"/>
</mask>
<path d="M0 32C0 14.3269 14.3269 0 32 0H388C405.673 0 420 14.3269 420 32V132C420 149.673 405.673 164 388 164H32C14.3269 164 0 149.673 0 132V32Z" fill="#F1EDE7"/>
<path d="M-0.5 31.5C-0.5 13.5507 14.0507 -1 32 -1H388C405.949 -1 420.5 13.5507 420.5 31.5L419.5 32C419.5 14.8792 405.397 1 388 1H32C14.603 1 0.5 14.8792 0.5 32L-0.5 31.5ZM420 164H0H420ZM32 164C14.0507 164 -0.5 149.449 -0.5 131.5V31.5C-0.5 13.5507 14.0507 -1 32 -1V1C14.603 1 0.5 14.8792 0.5 32V132C0.5 149.673 14.603 164 32 164ZM388 -1C405.949 -1 420.5 13.5507 420.5 31.5V131.5C420.5 149.449 405.949 164 388 164C405.397 164 419.5 149.673 419.5 132V32C419.5 14.8792 405.397 1 388 1V-1Z" fill="#9792E3" mask="url(#path-1-inside-1_3419_5168)"/>
<path d="M25.6953 86V83.7031C25.6953 81.3151 26.0599 79.1732 26.7891 77.2773C27.5365 75.3633 28.4935 73.5951 29.6602 71.9727C30.8268 70.332 32.0573 68.7279 33.3516 67.1602C34.6094 65.6289 35.8034 64.0612 36.9336 62.457C38.082 60.8346 39.0117 59.0846 39.7227 57.207C40.4518 55.3112 40.8164 53.1875 40.8164 50.8359C40.8164 49.7057 40.6432 48.7396 40.2969 47.9375C39.9688 47.1172 39.276 46.707 38.2188 46.707C36.6146 46.707 35.8125 48.138 35.8125 51V56.8789H25.6953C25.6771 56.4596 25.6497 55.9857 25.6133 55.457C25.5951 54.9284 25.5859 54.418 25.5859 53.9258C25.5859 50.4622 25.9505 47.5273 26.6797 45.1211C27.4089 42.6966 28.694 40.8555 30.5352 39.5977C32.3945 38.3216 35.0013 37.6836 38.3555 37.6836C42.3477 37.6836 45.4466 38.8047 47.6523 41.0469C49.8763 43.2891 50.9883 46.4883 50.9883 50.6445C50.9883 53.4701 50.6237 55.9492 49.8945 58.082C49.1654 60.1966 48.1992 62.1289 46.9961 63.8789C45.793 65.6107 44.4714 67.3424 43.0312 69.0742C42.0104 70.2956 41.0169 71.5443 40.0508 72.8203C39.1029 74.0964 38.2643 75.4635 37.5352 76.9219H50.6602V86H25.6953ZM64.3878 86.4375C60.3227 86.4375 57.1782 85.2982 54.9542 83.0195C52.7485 80.7409 51.6456 77.4596 51.6456 73.1758V51.4648C51.6456 46.944 52.6938 43.4805 54.7902 41.0742C56.9047 38.6497 60.104 37.4375 64.3878 37.4375C68.6899 37.4375 71.8891 38.6497 73.9855 41.0742C76.0818 43.4805 77.13 46.944 77.13 51.4648V73.1758C77.13 77.4596 76.0271 80.7409 73.8214 83.0195C71.6157 85.2982 68.4711 86.4375 64.3878 86.4375ZM64.3878 77.5781C65.1352 77.5781 65.7185 77.2409 66.1378 76.5664C66.5571 75.8919 66.7667 75.1354 66.7667 74.2969V50.5352C66.7667 49.4049 66.6391 48.4206 66.3839 47.582C66.1469 46.7253 65.4816 46.2969 64.3878 46.2969C63.2941 46.2969 62.6196 46.7253 62.3644 47.582C62.1274 48.4206 62.0089 49.4049 62.0089 50.5352V74.2969C62.0089 75.1354 62.2185 75.8919 62.6378 76.5664C63.0753 77.2409 63.6586 77.5781 64.3878 77.5781ZM90.9397 86.4375C86.8746 86.4375 83.7301 85.2982 81.5061 83.0195C79.3004 80.7409 78.1975 77.4596 78.1975 73.1758V51.4648C78.1975 46.944 79.2457 43.4805 81.342 41.0742C83.4566 38.6497 86.6558 37.4375 90.9397 37.4375C95.2418 37.4375 98.441 38.6497 100.537 41.0742C102.634 43.4805 103.682 46.944 103.682 51.4648V73.1758C103.682 77.4596 102.579 80.7409 100.373 83.0195C98.1676 85.2982 95.023 86.4375 90.9397 86.4375ZM90.9397 77.5781C91.6871 77.5781 92.2704 77.2409 92.6897 76.5664C93.109 75.8919 93.3186 75.1354 93.3186 74.2969V50.5352C93.3186 49.4049 93.191 48.4206 92.9358 47.582C92.6988 46.7253 92.0334 46.2969 90.9397 46.2969C89.8459 46.2969 89.1715 46.7253 88.9162 47.582C88.6793 48.4206 88.5608 49.4049 88.5608 50.5352V74.2969C88.5608 75.1354 88.7704 75.8919 89.1897 76.5664C89.6272 77.2409 90.2105 77.5781 90.9397 77.5781ZM129.004 86.4375C125.523 86.4375 122.715 85.3529 120.582 83.1836C118.468 81.0143 117.411 77.9792 117.411 74.0781V51.875C117.411 47.2083 118.331 43.6354 120.172 41.1562C122.032 38.6771 125.049 37.4375 129.223 37.4375C131.502 37.4375 133.525 37.8568 135.293 38.6953C137.08 39.5339 138.484 40.7917 139.504 42.4688C140.525 44.1276 141.036 46.224 141.036 48.7578V57.0703H131.465V49.9609C131.465 48.5208 131.283 47.5547 130.918 47.0625C130.554 46.5521 129.989 46.2969 129.223 46.2969C128.33 46.2969 127.728 46.625 127.418 47.2812C127.109 47.9193 126.954 48.776 126.954 49.8516V73.9414C126.954 75.2721 127.145 76.2109 127.528 76.7578C127.929 77.3047 128.494 77.5781 129.223 77.5781C130.043 77.5781 130.618 77.2409 130.946 76.5664C131.292 75.8919 131.465 75.0169 131.465 73.9414V65.2734H141.145V74.3789C141.145 78.6081 140.079 81.6797 137.946 83.5938C135.813 85.4896 132.832 86.4375 129.004 86.4375ZM143.252 86V37.875H158.017C160.478 37.875 162.338 38.4401 163.595 39.5703C164.853 40.6823 165.692 42.25 166.111 44.2734C166.548 46.2786 166.767 48.6393 166.767 51.3555C166.767 53.9805 166.43 56.0768 165.755 57.6445C165.099 59.2122 163.851 60.2969 162.009 60.8984C163.522 61.2083 164.58 61.9648 165.181 63.168C165.801 64.3529 166.111 65.8932 166.111 67.7891V86H156.623V67.1602C156.623 65.7565 156.331 64.8906 155.748 64.5625C155.183 64.2161 154.262 64.043 152.986 64.043V86H143.252ZM153.041 55.7031H155.365C156.696 55.7031 157.361 54.2539 157.361 51.3555C157.361 49.4779 157.215 48.2474 156.923 47.6641C156.632 47.0807 156.085 46.7891 155.283 46.7891H153.041V55.7031ZM173.467 77.7695V72.082H167.78V65.7383H173.467V60.0508H179.811V65.7383H185.499V72.082H179.811V77.7695H173.467Z" fill="#9792E3"/>
<path d="M30.275 127.216C29.423 127.216 28.643 127.06 27.935 126.748C27.227 126.424 26.627 125.986 26.135 125.434C25.643 124.882 25.289 124.264 25.073 123.58L26.603 122.95C26.927 123.814 27.407 124.48 28.043 124.948C28.691 125.404 29.447 125.632 30.311 125.632C30.839 125.632 31.301 125.548 31.697 125.38C32.093 125.212 32.399 124.978 32.615 124.678C32.843 124.366 32.957 124.006 32.957 123.598C32.957 123.034 32.795 122.59 32.471 122.266C32.159 121.93 31.697 121.678 31.085 121.51L28.619 120.754C27.647 120.454 26.903 119.98 26.387 119.332C25.871 118.684 25.613 117.94 25.613 117.1C25.613 116.368 25.787 115.726 26.135 115.174C26.495 114.61 26.987 114.172 27.611 113.86C28.247 113.536 28.967 113.374 29.771 113.374C30.575 113.374 31.301 113.518 31.949 113.806C32.609 114.094 33.167 114.484 33.623 114.976C34.079 115.456 34.415 116.008 34.631 116.632L33.119 117.262C32.831 116.506 32.399 115.936 31.823 115.552C31.247 115.156 30.569 114.958 29.789 114.958C29.309 114.958 28.883 115.042 28.511 115.21C28.151 115.366 27.869 115.6 27.665 115.912C27.473 116.212 27.377 116.572 27.377 116.992C27.377 117.484 27.533 117.922 27.845 118.306C28.157 118.69 28.631 118.984 29.267 119.188L31.517 119.854C32.573 120.178 33.371 120.64 33.911 121.24C34.451 121.84 34.721 122.584 34.721 123.472C34.721 124.204 34.529 124.852 34.145 125.416C33.773 125.98 33.251 126.424 32.579 126.748C31.919 127.06 31.151 127.216 30.275 127.216ZM41.2277 127.108C40.2797 127.108 39.5477 126.838 39.0317 126.298C38.5277 125.758 38.2757 124.996 38.2757 124.012V118.9H36.5117V117.298H36.8717C37.3037 117.298 37.6457 117.166 37.8977 116.902C38.1497 116.638 38.2757 116.29 38.2757 115.858V115.066H39.9497V117.298H42.1277V118.9H39.9497V123.958C39.9497 124.282 39.9977 124.564 40.0937 124.804C40.2017 125.044 40.3757 125.236 40.6157 125.38C40.8557 125.512 41.1737 125.578 41.5697 125.578C41.6537 125.578 41.7557 125.572 41.8757 125.56C42.0077 125.548 42.1277 125.536 42.2357 125.524V127C42.0797 127.036 41.9057 127.06 41.7137 127.072C41.5217 127.096 41.3597 127.108 41.2277 127.108ZM48.8028 127.216C47.8668 127.216 47.0328 126.994 46.3008 126.55C45.5688 126.106 44.9928 125.5 44.5728 124.732C44.1528 123.952 43.9428 123.082 43.9428 122.122C43.9428 121.15 44.1468 120.286 44.5548 119.53C44.9748 118.774 45.5388 118.18 46.2468 117.748C46.9668 117.304 47.7708 117.082 48.6588 117.082C49.3788 117.082 50.0148 117.214 50.5668 117.478C51.1308 117.73 51.6048 118.078 51.9888 118.522C52.3848 118.954 52.6848 119.452 52.8888 120.016C53.1048 120.568 53.2128 121.144 53.2128 121.744C53.2128 121.876 53.2008 122.026 53.1768 122.194C53.1648 122.35 53.1468 122.5 53.1228 122.644H45.1668V121.204H52.1508L51.3588 121.852C51.4668 121.228 51.4068 120.67 51.1788 120.178C50.9508 119.686 50.6148 119.296 50.1708 119.008C49.7268 118.72 49.2228 118.576 48.6588 118.576C48.0948 118.576 47.5788 118.72 47.1108 119.008C46.6428 119.296 46.2768 119.71 46.0128 120.25C45.7608 120.778 45.6588 121.408 45.7068 122.14C45.6588 122.848 45.7668 123.472 46.0308 124.012C46.3068 124.54 46.6908 124.954 47.1828 125.254C47.6868 125.542 48.2328 125.686 48.8208 125.686C49.4688 125.686 50.0148 125.536 50.4588 125.236C50.9028 124.936 51.2628 124.552 51.5388 124.084L52.9428 124.804C52.7508 125.248 52.4508 125.656 52.0428 126.028C51.6468 126.388 51.1728 126.676 50.6208 126.892C50.0808 127.108 49.4748 127.216 48.8028 127.216ZM55.5754 130.6V117.298H57.2134V119.386L56.9974 118.972C57.3574 118.396 57.8494 117.94 58.4734 117.604C59.0974 117.256 59.8114 117.082 60.6154 117.082C61.5274 117.082 62.3434 117.304 63.0634 117.748C63.7954 118.192 64.3714 118.798 64.7914 119.566C65.2114 120.322 65.4214 121.186 65.4214 122.158C65.4214 123.106 65.2114 123.964 64.7914 124.732C64.3714 125.5 63.7954 126.106 63.0634 126.55C62.3434 126.994 61.5214 127.216 60.5974 127.216C59.8174 127.216 59.1034 127.042 58.4554 126.694C57.8194 126.346 57.3274 125.854 56.9794 125.218L57.2494 124.93V130.6H55.5754ZM60.4714 125.596C61.0834 125.596 61.6294 125.446 62.1094 125.146C62.5894 124.846 62.9614 124.438 63.2254 123.922C63.5014 123.394 63.6394 122.806 63.6394 122.158C63.6394 121.486 63.5014 120.898 63.2254 120.394C62.9614 119.878 62.5894 119.47 62.1094 119.17C61.6294 118.858 61.0834 118.702 60.4714 118.702C59.8594 118.702 59.3074 118.852 58.8154 119.152C58.3354 119.452 57.9514 119.866 57.6634 120.394C57.3874 120.91 57.2494 121.498 57.2494 122.158C57.2494 122.806 57.3874 123.394 57.6634 123.922C57.9514 124.438 58.3354 124.846 58.8154 125.146C59.3074 125.446 59.8594 125.596 60.4714 125.596ZM71.2704 127.216C70.2984 127.216 69.4524 126.976 68.7324 126.496C68.0124 126.016 67.5024 125.368 67.2024 124.552L68.5344 123.904C68.8104 124.48 69.1884 124.936 69.6684 125.272C70.1484 125.608 70.6824 125.776 71.2704 125.776C71.7984 125.776 72.2364 125.65 72.5844 125.398C72.9324 125.146 73.1064 124.816 73.1064 124.408C73.1064 124.12 73.0224 123.892 72.8544 123.724C72.6984 123.544 72.5064 123.406 72.2784 123.31C72.0504 123.202 71.8404 123.124 71.6484 123.076L70.1904 122.662C69.3144 122.41 68.6724 122.05 68.2644 121.582C67.8684 121.114 67.6704 120.568 67.6704 119.944C67.6704 119.368 67.8144 118.87 68.1024 118.45C68.4024 118.018 68.8044 117.682 69.3084 117.442C69.8244 117.202 70.4004 117.082 71.0364 117.082C71.8884 117.082 72.6504 117.298 73.3224 117.73C74.0064 118.162 74.4924 118.768 74.7804 119.548L73.4124 120.178C73.1964 119.674 72.8724 119.278 72.4404 118.99C72.0084 118.69 71.5224 118.54 70.9824 118.54C70.4904 118.54 70.1004 118.666 69.8124 118.918C69.5244 119.158 69.3804 119.464 69.3804 119.836C69.3804 120.112 69.4524 120.34 69.5964 120.52C69.7404 120.688 69.9144 120.82 70.1184 120.916C70.3224 121 70.5204 121.072 70.7124 121.132L72.2964 121.6C73.0884 121.828 73.7004 122.182 74.1324 122.662C74.5764 123.142 74.7984 123.718 74.7984 124.39C74.7984 124.93 74.6484 125.416 74.3484 125.848C74.0484 126.28 73.6344 126.616 73.1064 126.856C72.5784 127.096 71.9664 127.216 71.2704 127.216ZM80.4611 127V117.298H82.0991V119.08L81.9191 118.828C82.1471 118.276 82.4951 117.868 82.9631 117.604C83.4311 117.328 84.0011 117.19 84.6731 117.19H85.2671V118.774H84.4211C83.7371 118.774 83.1851 118.99 82.7651 119.422C82.3451 119.842 82.1351 120.442 82.1351 121.222V127H80.4611ZM91.3981 127.216C90.4621 127.216 89.6281 126.994 88.8961 126.55C88.1641 126.106 87.5881 125.5 87.1681 124.732C86.7481 123.952 86.5381 123.082 86.5381 122.122C86.5381 121.15 86.7421 120.286 87.1501 119.53C87.5701 118.774 88.1341 118.18 88.8421 117.748C89.5621 117.304 90.3661 117.082 91.2541 117.082C91.9741 117.082 92.6101 117.214 93.1621 117.478C93.7261 117.73 94.2001 118.078 94.5841 118.522C94.9801 118.954 95.2801 119.452 95.4841 120.016C95.7001 120.568 95.8081 121.144 95.8081 121.744C95.8081 121.876 95.7961 122.026 95.7721 122.194C95.7601 122.35 95.7421 122.5 95.7181 122.644H87.7621V121.204H94.7461L93.9541 121.852C94.0621 121.228 94.0021 120.67 93.7741 120.178C93.5461 119.686 93.2101 119.296 92.7661 119.008C92.3221 118.72 91.8181 118.576 91.2541 118.576C90.6901 118.576 90.1741 118.72 89.7061 119.008C89.2381 119.296 88.8721 119.71 88.6081 120.25C88.3561 120.778 88.2541 121.408 88.3021 122.14C88.2541 122.848 88.3621 123.472 88.6261 124.012C88.9021 124.54 89.2861 124.954 89.7781 125.254C90.2821 125.542 90.8281 125.686 91.4161 125.686C92.0641 125.686 92.6101 125.536 93.0541 125.236C93.4981 124.936 93.8581 124.552 94.1341 124.084L95.5381 124.804C95.3461 125.248 95.0461 125.656 94.6381 126.028C94.2421 126.388 93.7681 126.676 93.2161 126.892C92.6761 127.108 92.0701 127.216 91.3981 127.216ZM102.797 130.96C102.113 130.96 101.477 130.852 100.889 130.636C100.313 130.42 99.8147 130.12 99.3947 129.736C98.9867 129.364 98.6747 128.926 98.4587 128.422L100.025 127.702C100.193 128.158 100.511 128.542 100.979 128.854C101.459 129.178 102.059 129.34 102.779 129.34C103.331 129.34 103.829 129.232 104.273 129.016C104.729 128.812 105.089 128.5 105.353 128.08C105.617 127.672 105.749 127.174 105.749 126.586V124.408L106.055 124.732C105.719 125.392 105.233 125.896 104.597 126.244C103.973 126.592 103.283 126.766 102.527 126.766C101.615 126.766 100.799 126.556 100.079 126.136C99.3587 125.704 98.7947 125.122 98.3867 124.39C97.9787 123.646 97.7747 122.824 97.7747 121.924C97.7747 121.012 97.9787 120.19 98.3867 119.458C98.7947 118.726 99.3527 118.15 100.061 117.73C100.781 117.298 101.597 117.082 102.509 117.082C103.265 117.082 103.949 117.256 104.561 117.604C105.185 117.94 105.683 118.408 106.055 119.008L105.803 119.458V117.298H107.441V126.586C107.441 127.426 107.243 128.176 106.847 128.836C106.451 129.496 105.899 130.012 105.191 130.384C104.495 130.768 103.697 130.96 102.797 130.96ZM102.671 125.146C103.247 125.146 103.763 125.002 104.219 124.714C104.687 124.426 105.059 124.042 105.335 123.562C105.611 123.07 105.749 122.524 105.749 121.924C105.749 121.336 105.611 120.796 105.335 120.304C105.059 119.812 104.687 119.422 104.219 119.134C103.763 118.846 103.247 118.702 102.671 118.702C102.083 118.702 101.549 118.846 101.069 119.134C100.589 119.422 100.211 119.812 99.9347 120.304C99.6707 120.784 99.5387 121.324 99.5387 121.924C99.5387 122.524 99.6707 123.07 99.9347 123.562C100.211 124.042 100.583 124.426 101.051 124.714C101.531 125.002 102.071 125.146 102.671 125.146ZM110.216 127V117.298H111.89V127H110.216ZM110.216 115.75V113.59H111.89V115.75H110.216ZM118.141 127.216C117.169 127.216 116.323 126.976 115.603 126.496C114.883 126.016 114.373 125.368 114.073 124.552L115.405 123.904C115.681 124.48 116.059 124.936 116.539 125.272C117.019 125.608 117.553 125.776 118.141 125.776C118.669 125.776 119.107 125.65 119.455 125.398C119.803 125.146 119.977 124.816 119.977 124.408C119.977 124.12 119.893 123.892 119.725 123.724C119.569 123.544 119.377 123.406 119.149 123.31C118.921 123.202 118.711 123.124 118.519 123.076L117.061 122.662C116.185 122.41 115.543 122.05 115.135 121.582C114.739 121.114 114.541 120.568 114.541 119.944C114.541 119.368 114.685 118.87 114.973 118.45C115.273 118.018 115.675 117.682 116.179 117.442C116.695 117.202 117.271 117.082 117.907 117.082C118.759 117.082 119.521 117.298 120.193 117.73C120.877 118.162 121.363 118.768 121.651 119.548L120.283 120.178C120.067 119.674 119.743 119.278 119.311 118.99C118.879 118.69 118.393 118.54 117.853 118.54C117.361 118.54 116.971 118.666 116.683 118.918C116.395 119.158 116.251 119.464 116.251 119.836C116.251 120.112 116.323 120.34 116.467 120.52C116.611 120.688 116.785 120.82 116.989 120.916C117.193 121 117.391 121.072 117.583 121.132L119.167 121.6C119.959 121.828 120.571 122.182 121.003 122.662C121.447 123.142 121.669 123.718 121.669 124.39C121.669 124.93 121.519 125.416 121.219 125.848C120.919 126.28 120.505 126.616 119.977 126.856C119.449 127.096 118.837 127.216 118.141 127.216ZM127.983 127.108C127.035 127.108 126.303 126.838 125.787 126.298C125.283 125.758 125.031 124.996 125.031 124.012V118.9H123.267V117.298H123.627C124.059 117.298 124.401 117.166 124.653 116.902C124.905 116.638 125.031 116.29 125.031 115.858V115.066H126.705V117.298H128.883V118.9H126.705V123.958C126.705 124.282 126.753 124.564 126.849 124.804C126.957 125.044 127.131 125.236 127.371 125.38C127.611 125.512 127.929 125.578 128.325 125.578C128.409 125.578 128.511 125.572 128.631 125.56C128.763 125.548 128.883 125.536 128.991 125.524V127C128.835 127.036 128.661 127.06 128.469 127.072C128.277 127.096 128.115 127.108 127.983 127.108ZM135.558 127.216C134.622 127.216 133.788 126.994 133.056 126.55C132.324 126.106 131.748 125.5 131.328 124.732C130.908 123.952 130.698 123.082 130.698 122.122C130.698 121.15 130.902 120.286 131.31 119.53C131.73 118.774 132.294 118.18 133.002 117.748C133.722 117.304 134.526 117.082 135.414 117.082C136.134 117.082 136.77 117.214 137.322 117.478C137.886 117.73 138.36 118.078 138.744 118.522C139.14 118.954 139.44 119.452 139.644 120.016C139.86 120.568 139.968 121.144 139.968 121.744C139.968 121.876 139.956 122.026 139.932 122.194C139.92 122.35 139.902 122.5 139.878 122.644H131.922V121.204H138.906L138.114 121.852C138.222 121.228 138.162 120.67 137.934 120.178C137.706 119.686 137.37 119.296 136.926 119.008C136.482 118.72 135.978 118.576 135.414 118.576C134.85 118.576 134.334 118.72 133.866 119.008C133.398 119.296 133.032 119.71 132.768 120.25C132.516 120.778 132.414 121.408 132.462 122.14C132.414 122.848 132.522 123.472 132.786 124.012C133.062 124.54 133.446 124.954 133.938 125.254C134.442 125.542 134.988 125.686 135.576 125.686C136.224 125.686 136.77 125.536 137.214 125.236C137.658 124.936 138.018 124.552 138.294 124.084L139.698 124.804C139.506 125.248 139.206 125.656 138.798 126.028C138.402 126.388 137.928 126.676 137.376 126.892C136.836 127.108 136.23 127.216 135.558 127.216ZM142.33 127V117.298H143.968V119.08L143.788 118.828C144.016 118.276 144.364 117.868 144.832 117.604C145.3 117.328 145.87 117.19 146.542 117.19H147.136V118.774H146.29C145.606 118.774 145.054 118.99 144.634 119.422C144.214 119.842 144.004 120.442 144.004 121.222V127H142.33ZM153.267 127.216C152.331 127.216 151.497 126.994 150.765 126.55C150.033 126.106 149.457 125.5 149.037 124.732C148.617 123.952 148.407 123.082 148.407 122.122C148.407 121.15 148.611 120.286 149.019 119.53C149.439 118.774 150.003 118.18 150.711 117.748C151.431 117.304 152.235 117.082 153.123 117.082C153.843 117.082 154.479 117.214 155.031 117.478C155.595 117.73 156.069 118.078 156.453 118.522C156.849 118.954 157.149 119.452 157.353 120.016C157.569 120.568 157.677 121.144 157.677 121.744C157.677 121.876 157.665 122.026 157.641 122.194C157.629 122.35 157.611 122.5 157.587 122.644H149.631V121.204H156.615L155.823 121.852C155.931 121.228 155.871 120.67 155.643 120.178C155.415 119.686 155.079 119.296 154.635 119.008C154.191 118.72 153.687 118.576 153.123 118.576C152.559 118.576 152.043 118.72 151.575 119.008C151.107 119.296 150.741 119.71 150.477 120.25C150.225 120.778 150.123 121.408 150.171 122.14C150.123 122.848 150.231 123.472 150.495 124.012C150.771 124.54 151.155 124.954 151.647 125.254C152.151 125.542 152.697 125.686 153.285 125.686C153.933 125.686 154.479 125.536 154.923 125.236C155.367 124.936 155.727 124.552 156.003 124.084L157.407 124.804C157.215 125.248 156.915 125.656 156.507 126.028C156.111 126.388 155.637 126.676 155.085 126.892C154.545 127.108 153.939 127.216 153.267 127.216ZM164.45 127.216C163.538 127.216 162.716 126.994 161.984 126.55C161.264 126.106 160.694 125.5 160.274 124.732C159.854 123.964 159.644 123.106 159.644 122.158C159.644 121.186 159.854 120.322 160.274 119.566C160.694 118.798 161.264 118.192 161.984 117.748C162.716 117.304 163.538 117.082 164.45 117.082C165.254 117.082 165.968 117.256 166.592 117.604C167.216 117.94 167.708 118.396 168.068 118.972L167.798 119.386V113.374H169.49V127H167.852V124.93L168.068 125.218C167.732 125.854 167.24 126.346 166.592 126.694C165.956 127.042 165.242 127.216 164.45 127.216ZM164.594 125.596C165.206 125.596 165.752 125.446 166.232 125.146C166.712 124.846 167.09 124.438 167.366 123.922C167.654 123.394 167.798 122.806 167.798 122.158C167.798 121.498 167.654 120.91 167.366 120.394C167.09 119.866 166.712 119.452 166.232 119.152C165.752 118.852 165.206 118.702 164.594 118.702C163.994 118.702 163.448 118.858 162.956 119.17C162.476 119.47 162.098 119.878 161.822 120.394C161.546 120.898 161.408 121.486 161.408 122.158C161.408 122.806 161.546 123.394 161.822 123.922C162.098 124.438 162.476 124.846 162.956 125.146C163.436 125.446 163.982 125.596 164.594 125.596ZM175.552 127V117.298H177.226V127H175.552ZM175.552 115.75V113.59H177.226V115.75H175.552ZM180.004 127V117.298H181.642V119.188L181.372 119.026C181.612 118.414 181.996 117.94 182.524 117.604C183.064 117.256 183.694 117.082 184.414 117.082C185.11 117.082 185.728 117.238 186.268 117.55C186.82 117.862 187.252 118.294 187.564 118.846C187.888 119.398 188.05 120.022 188.05 120.718V127H186.358V121.258C186.358 120.718 186.262 120.262 186.07 119.89C185.878 119.518 185.602 119.23 185.242 119.026C184.894 118.81 184.492 118.702 184.036 118.702C183.58 118.702 183.172 118.81 182.812 119.026C182.464 119.23 182.188 119.524 181.984 119.908C181.78 120.28 181.678 120.73 181.678 121.258V127H180.004ZM193.593 127V125.776L197.301 121.762C198.033 120.982 198.615 120.34 199.047 119.836C199.491 119.332 199.815 118.882 200.019 118.486C200.223 118.09 200.325 117.67 200.325 117.226C200.325 116.494 200.109 115.93 199.677 115.534C199.245 115.138 198.675 114.94 197.967 114.94C197.247 114.94 196.635 115.15 196.131 115.57C195.627 115.978 195.279 116.56 195.087 117.316L193.485 116.902C193.641 116.182 193.929 115.558 194.349 115.03C194.769 114.502 195.291 114.094 195.915 113.806C196.539 113.518 197.223 113.374 197.967 113.374C198.783 113.374 199.497 113.536 200.109 113.86C200.733 114.172 201.219 114.61 201.567 115.174C201.927 115.738 202.107 116.392 202.107 117.136C202.107 117.628 202.005 118.108 201.801 118.576C201.597 119.044 201.297 119.542 200.901 120.07C200.505 120.586 199.989 121.186 199.353 121.87L196.041 125.47H202.395V127H193.593ZM210.11 127.216C209.042 127.216 208.106 126.928 207.302 126.352C206.51 125.764 205.892 124.954 205.448 123.922C205.004 122.878 204.782 121.666 204.782 120.286C204.782 118.906 205.004 117.7 205.448 116.668C205.892 115.624 206.51 114.814 207.302 114.238C208.094 113.662 209.024 113.374 210.092 113.374C211.16 113.374 212.09 113.662 212.882 114.238C213.674 114.814 214.292 115.624 214.736 116.668C215.192 117.7 215.42 118.906 215.42 120.286C215.42 121.666 215.198 122.878 214.754 123.922C214.31 124.966 213.686 125.776 212.882 126.352C212.09 126.928 211.166 127.216 210.11 127.216ZM210.11 125.578C210.83 125.578 211.454 125.362 211.982 124.93C212.51 124.486 212.918 123.868 213.206 123.076C213.506 122.284 213.656 121.354 213.656 120.286C213.656 119.218 213.506 118.288 213.206 117.496C212.918 116.704 212.504 116.092 211.964 115.66C211.436 115.228 210.812 115.012 210.092 115.012C209.372 115.012 208.748 115.228 208.22 115.66C207.692 116.092 207.278 116.704 206.978 117.496C206.69 118.288 206.546 119.218 206.546 120.286C206.546 121.342 206.69 122.266 206.978 123.058C207.278 123.85 207.692 124.468 208.22 124.912C208.76 125.356 209.39 125.578 210.11 125.578ZM217.753 127V125.776L221.461 121.762C222.193 120.982 222.775 120.34 223.207 119.836C223.651 119.332 223.975 118.882 224.179 118.486C224.383 118.09 224.485 117.67 224.485 117.226C224.485 116.494 224.269 115.93 223.837 115.534C223.405 115.138 222.835 114.94 222.127 114.94C221.407 114.94 220.795 115.15 220.291 115.57C219.787 115.978 219.439 116.56 219.247 117.316L217.645 116.902C217.801 116.182 218.089 115.558 218.509 115.03C218.929 114.502 219.451 114.094 220.075 113.806C220.699 113.518 221.383 113.374 222.127 113.374C222.943 113.374 223.657 113.536 224.269 113.86C224.893 114.172 225.379 114.61 225.727 115.174C226.087 115.738 226.267 116.392 226.267 117.136C226.267 117.628 226.165 118.108 225.961 118.576C225.757 119.044 225.457 119.542 225.061 120.07C224.665 120.586 224.149 121.186 223.513 121.87L220.201 125.47H226.555V127H217.753ZM234.923 127V123.904H228.335V122.446L234.887 113.59H236.579V122.446H238.325V123.904H236.579V127H234.923ZM229.667 123.076L229.415 122.446H234.923V115.066L235.445 115.21L229.667 123.076ZM241.254 123.076L241.146 113.59H242.91L242.784 123.076H241.254ZM241.146 127V124.84H242.91V127H241.146Z" fill="#151304" fill-opacity="0.6"/>
<path d="M371.533 41.1699C361.413 41.1699 353.18 49.4031 353.18 59.5229C353.18 69.6427 361.413 77.8758 371.533 77.8758C381.653 77.8758 389.886 69.6427 389.886 59.5229C389.886 49.4031 381.653 41.1699 371.533 41.1699ZM371.533 74.5389C363.253 74.5389 356.517 67.8027 356.517 59.5229C356.517 51.243 363.253 44.5068 371.533 44.5068C379.813 44.5068 386.549 51.243 386.549 59.5229C386.549 67.8027 379.813 74.5389 371.533 74.5389Z" fill="#9792E3"/>
<path d="M378.023 53.8863L369.121 63.1959L365.042 58.929C364.427 58.2864 363.431 58.2863 362.817 58.9289C362.202 59.5716 362.202 60.6135 362.817 61.2563L368.009 66.6869C368.304 66.9955 368.704 67.169 369.121 67.169H369.121C369.539 67.169 369.939 66.9955 370.234 66.687L380.248 56.2138C380.862 55.5711 380.862 54.5291 380.248 53.8864C379.633 53.2437 378.637 53.2436 378.023 53.8863Z" fill="#9792E3"/>
<mask id="path-7-inside-2_3419_5168" fill="white">
<path d="M410 32C410 14.3269 424.327 0 442 0H798C815.673 0 830 14.3269 830 32V132C830 149.673 815.673 164 798 164H442C424.327 164 410 149.673 410 132V32Z"/>
</mask>
<path d="M410 32C410 14.3269 424.327 0 442 0H798C815.673 0 830 14.3269 830 32V132C830 149.673 815.673 164 798 164H442C424.327 164 410 149.673 410 132V32Z" fill="#E7F1DE"/>
<path d="M409.5 31.5C409.5 13.5507 424.051 -1 442 -1H798C815.949 -1 830.5 13.5507 830.5 31.5L829.5 32C829.5 14.8792 815.397 1 798 1H442C424.603 1 410.5 14.8792 410.5 32L409.5 31.5ZM830 164H410H830ZM442 164C424.051 164 409.5 149.449 409.5 131.5V31.5C409.5 13.5507 424.051 -1 442 -1V1C424.603 1 410.5 14.8792 410.5 32V132C410.5 149.673 424.603 164 442 164ZM798 -1C815.949 -1 830.5 13.5507 830.5 31.5V131.5C830.5 149.449 815.949 164 798 164C815.397 164 829.5 149.673 829.5 132V32C829.5 14.8792 815.397 1 798 1V-1Z" fill="#0E986A" mask="url(#path-7-inside-2_3419_5168)"/>
<path d="M440.645 86V48.9219C439.988 49.7057 439.086 50.3438 437.938 50.8359C436.789 51.3099 435.704 51.5469 434.684 51.5469V43.8633C435.65 43.7174 436.689 43.4076 437.801 42.9336C438.913 42.4414 439.943 41.776 440.891 40.9375C441.857 40.0807 442.595 39.0508 443.105 37.8477H450.844V86H440.645ZM465.884 86.4375C462.548 86.4375 459.932 85.8724 458.036 84.7422C456.159 83.5938 454.828 81.8711 454.044 79.5742C453.278 77.2773 452.896 74.4154 452.896 70.9883V57.9727C452.896 54.6367 453.032 51.6927 453.306 49.1406C453.597 46.5885 454.19 44.4466 455.083 42.7148C455.976 40.9831 457.307 39.6706 459.075 38.7773C460.844 37.8841 463.204 37.4375 466.157 37.4375C468.181 37.4375 470.067 37.793 471.817 38.5039C473.567 39.1966 474.98 40.2448 476.056 41.6484C477.131 43.0339 477.669 44.7747 477.669 46.8711V52.0664H468.4V51.082C468.4 50.2799 468.354 49.4779 468.263 48.6758C468.19 47.8737 467.989 47.2083 467.661 46.6797C467.333 46.151 466.777 45.8867 465.993 45.8867C464.918 45.8867 464.17 46.1875 463.751 46.7891C463.332 47.3724 463.122 48.2201 463.122 49.332V58.9844C463.578 58.1276 464.262 57.444 465.173 56.9336C466.084 56.4049 467.196 56.1406 468.509 56.1406C471.17 56.1406 473.212 56.6784 474.634 57.7539C476.074 58.8112 477.067 60.3971 477.614 62.5117C478.161 64.6263 478.435 67.2695 478.435 70.4414C478.435 73.6497 478.043 76.457 477.259 78.8633C476.475 81.2513 475.163 83.1107 473.321 84.4414C471.498 85.7721 469.019 86.4375 465.884 86.4375ZM465.528 77.5781C466.659 77.5781 467.333 77.1042 467.552 76.1562C467.771 75.1901 467.88 73.9596 467.88 72.4648V68.582C467.88 65.957 467.142 64.6445 465.665 64.6445C463.97 64.6445 463.122 65.7839 463.122 68.0625V74.0234C463.122 76.3932 463.924 77.5781 465.528 77.5781ZM491.807 86.4375C487.742 86.4375 484.597 85.2982 482.373 83.0195C480.168 80.7409 479.065 77.4596 479.065 73.1758V51.4648C479.065 46.944 480.113 43.4805 482.209 41.0742C484.324 38.6497 487.523 37.4375 491.807 37.4375C496.109 37.4375 499.308 38.6497 501.405 41.0742C503.501 43.4805 504.549 46.944 504.549 51.4648V73.1758C504.549 77.4596 503.446 80.7409 501.24 83.0195C499.035 85.2982 495.89 86.4375 491.807 86.4375ZM491.807 77.5781C492.554 77.5781 493.138 77.2409 493.557 76.5664C493.976 75.8919 494.186 75.1354 494.186 74.2969V50.5352C494.186 49.4049 494.058 48.4206 493.803 47.582C493.566 46.7253 492.901 46.2969 491.807 46.2969C490.713 46.2969 490.039 46.7253 489.783 47.582C489.546 48.4206 489.428 49.4049 489.428 50.5352V74.2969C489.428 75.1354 489.638 75.8919 490.057 76.5664C490.494 77.2409 491.078 77.5781 491.807 77.5781ZM518.359 86.4375C514.294 86.4375 511.149 85.2982 508.925 83.0195C506.719 80.7409 505.617 77.4596 505.617 73.1758V51.4648C505.617 46.944 506.665 43.4805 508.761 41.0742C510.876 38.6497 514.075 37.4375 518.359 37.4375C522.661 37.4375 525.86 38.6497 527.956 41.0742C530.053 43.4805 531.101 46.944 531.101 51.4648V73.1758C531.101 77.4596 529.998 80.7409 527.792 83.0195C525.587 85.2982 522.442 86.4375 518.359 86.4375ZM518.359 77.5781C519.106 77.5781 519.689 77.2409 520.109 76.5664C520.528 75.8919 520.738 75.1354 520.738 74.2969V50.5352C520.738 49.4049 520.61 48.4206 520.355 47.582C520.118 46.7253 519.452 46.2969 518.359 46.2969C517.265 46.2969 516.591 46.7253 516.335 47.582C516.098 48.4206 515.98 49.4049 515.98 50.5352V74.2969C515.98 75.1354 516.189 75.8919 516.609 76.5664C517.046 77.2409 517.63 77.5781 518.359 77.5781ZM537.856 77.7695V72.082H532.168V65.7383H537.856V60.0508H544.2V65.7383H549.887V72.082H544.2V77.7695H537.856Z" fill="#0E986A"/>
<path d="M438.193 127V115.21H434.557V113.59H443.557V115.21H439.975V127H438.193ZM444.167 127V117.298H445.805V119.08L445.625 118.828C445.853 118.276 446.201 117.868 446.669 117.604C447.137 117.328 447.707 117.19 448.379 117.19H448.973V118.774H448.127C447.443 118.774 446.891 118.99 446.471 119.422C446.051 119.842 445.841 120.442 445.841 121.222V127H444.167ZM455.104 127.216C454.168 127.216 453.334 126.994 452.602 126.55C451.87 126.106 451.294 125.5 450.874 124.732C450.454 123.952 450.244 123.082 450.244 122.122C450.244 121.15 450.448 120.286 450.856 119.53C451.276 118.774 451.84 118.18 452.548 117.748C453.268 117.304 454.072 117.082 454.96 117.082C455.68 117.082 456.316 117.214 456.868 117.478C457.432 117.73 457.906 118.078 458.29 118.522C458.686 118.954 458.986 119.452 459.19 120.016C459.406 120.568 459.514 121.144 459.514 121.744C459.514 121.876 459.502 122.026 459.478 122.194C459.466 122.35 459.448 122.5 459.424 122.644H451.468V121.204H458.452L457.66 121.852C457.768 121.228 457.708 120.67 457.48 120.178C457.252 119.686 456.916 119.296 456.472 119.008C456.028 118.72 455.524 118.576 454.96 118.576C454.396 118.576 453.88 118.72 453.412 119.008C452.944 119.296 452.578 119.71 452.314 120.25C452.062 120.778 451.96 121.408 452.008 122.14C451.96 122.848 452.068 123.472 452.332 124.012C452.608 124.54 452.992 124.954 453.484 125.254C453.988 125.542 454.534 125.686 455.122 125.686C455.77 125.686 456.316 125.536 456.76 125.236C457.204 124.936 457.564 124.552 457.84 124.084L459.244 124.804C459.052 125.248 458.752 125.656 458.344 126.028C457.948 126.388 457.474 126.676 456.922 126.892C456.382 127.108 455.776 127.216 455.104 127.216ZM466.341 127.216C465.405 127.216 464.571 126.994 463.839 126.55C463.107 126.106 462.531 125.5 462.111 124.732C461.691 123.952 461.481 123.082 461.481 122.122C461.481 121.15 461.685 120.286 462.093 119.53C462.513 118.774 463.077 118.18 463.785 117.748C464.505 117.304 465.309 117.082 466.197 117.082C466.917 117.082 467.553 117.214 468.105 117.478C468.669 117.73 469.143 118.078 469.527 118.522C469.923 118.954 470.223 119.452 470.427 120.016C470.643 120.568 470.751 121.144 470.751 121.744C470.751 121.876 470.739 122.026 470.715 122.194C470.703 122.35 470.685 122.5 470.661 122.644H462.705V121.204H469.689L468.897 121.852C469.005 121.228 468.945 120.67 468.717 120.178C468.489 119.686 468.153 119.296 467.709 119.008C467.265 118.72 466.761 118.576 466.197 118.576C465.633 118.576 465.117 118.72 464.649 119.008C464.181 119.296 463.815 119.71 463.551 120.25C463.299 120.778 463.197 121.408 463.245 122.14C463.197 122.848 463.305 123.472 463.569 124.012C463.845 124.54 464.229 124.954 464.721 125.254C465.225 125.542 465.771 125.686 466.359 125.686C467.007 125.686 467.553 125.536 467.997 125.236C468.441 124.936 468.801 124.552 469.077 124.084L470.481 124.804C470.289 125.248 469.989 125.656 469.581 126.028C469.185 126.388 468.711 126.676 468.159 126.892C467.619 127.108 467.013 127.216 466.341 127.216ZM476.588 127.216C475.616 127.216 474.77 126.976 474.05 126.496C473.33 126.016 472.82 125.368 472.52 124.552L473.852 123.904C474.128 124.48 474.506 124.936 474.986 125.272C475.466 125.608 476 125.776 476.588 125.776C477.116 125.776 477.554 125.65 477.902 125.398C478.25 125.146 478.424 124.816 478.424 124.408C478.424 124.12 478.34 123.892 478.172 123.724C478.016 123.544 477.824 123.406 477.596 123.31C477.368 123.202 477.158 123.124 476.966 123.076L475.508 122.662C474.632 122.41 473.99 122.05 473.582 121.582C473.186 121.114 472.988 120.568 472.988 119.944C472.988 119.368 473.132 118.87 473.42 118.45C473.72 118.018 474.122 117.682 474.626 117.442C475.142 117.202 475.718 117.082 476.354 117.082C477.206 117.082 477.968 117.298 478.64 117.73C479.324 118.162 479.81 118.768 480.098 119.548L478.73 120.178C478.514 119.674 478.19 119.278 477.758 118.99C477.326 118.69 476.84 118.54 476.3 118.54C475.808 118.54 475.418 118.666 475.13 118.918C474.842 119.158 474.698 119.464 474.698 119.836C474.698 120.112 474.77 120.34 474.914 120.52C475.058 120.688 475.232 120.82 475.436 120.916C475.64 121 475.838 121.072 476.03 121.132L477.614 121.6C478.406 121.828 479.018 122.182 479.45 122.662C479.894 123.142 480.116 123.718 480.116 124.39C480.116 124.93 479.966 125.416 479.666 125.848C479.366 126.28 478.952 126.616 478.424 126.856C477.896 127.096 477.284 127.216 476.588 127.216ZM485.778 130.6V117.298H487.416V119.386L487.2 118.972C487.56 118.396 488.052 117.94 488.676 117.604C489.3 117.256 490.014 117.082 490.818 117.082C491.73 117.082 492.546 117.304 493.266 117.748C493.998 118.192 494.574 118.798 494.994 119.566C495.414 120.322 495.624 121.186 495.624 122.158C495.624 123.106 495.414 123.964 494.994 124.732C494.574 125.5 493.998 126.106 493.266 126.55C492.546 126.994 491.724 127.216 490.8 127.216C490.02 127.216 489.306 127.042 488.658 126.694C488.022 126.346 487.53 125.854 487.182 125.218L487.452 124.93V130.6H485.778ZM490.674 125.596C491.286 125.596 491.832 125.446 492.312 125.146C492.792 124.846 493.164 124.438 493.428 123.922C493.704 123.394 493.842 122.806 493.842 122.158C493.842 121.486 493.704 120.898 493.428 120.394C493.164 119.878 492.792 119.47 492.312 119.17C491.832 118.858 491.286 118.702 490.674 118.702C490.062 118.702 489.51 118.852 489.018 119.152C488.538 119.452 488.154 119.866 487.866 120.394C487.59 120.91 487.452 121.498 487.452 122.158C487.452 122.806 487.59 123.394 487.866 123.922C488.154 124.438 488.538 124.846 489.018 125.146C489.51 125.446 490.062 125.596 490.674 125.596ZM497.999 127V113.374H499.673V127H497.999ZM505.295 127.216C504.659 127.216 504.095 127.102 503.603 126.874C503.123 126.634 502.745 126.31 502.469 125.902C502.193 125.482 502.055 125.002 502.055 124.462C502.055 123.946 502.163 123.484 502.379 123.076C502.607 122.656 502.955 122.302 503.423 122.014C503.903 121.726 504.503 121.522 505.223 121.402L508.823 120.808V122.212L505.601 122.752C504.977 122.86 504.521 123.058 504.233 123.346C503.957 123.634 503.819 123.988 503.819 124.408C503.819 124.804 503.975 125.134 504.287 125.398C504.611 125.662 505.013 125.794 505.493 125.794C506.105 125.794 506.633 125.668 507.077 125.416C507.533 125.152 507.887 124.798 508.139 124.354C508.403 123.91 508.535 123.418 508.535 122.878V120.412C508.535 119.884 508.337 119.458 507.941 119.134C507.557 118.798 507.047 118.63 506.411 118.63C505.859 118.63 505.367 118.774 504.935 119.062C504.515 119.338 504.203 119.71 503.999 120.178L502.541 119.422C502.721 118.978 503.009 118.582 503.405 118.234C503.801 117.874 504.263 117.592 504.791 117.388C505.319 117.184 505.871 117.082 506.447 117.082C507.191 117.082 507.845 117.226 508.409 117.514C508.973 117.79 509.411 118.18 509.723 118.684C510.047 119.176 510.209 119.752 510.209 120.412V127H508.571V125.164L508.877 125.272C508.673 125.656 508.397 125.992 508.049 126.28C507.701 126.568 507.293 126.796 506.825 126.964C506.357 127.132 505.847 127.216 505.295 127.216ZM512.984 127V117.298H514.622V119.188L514.352 119.026C514.592 118.414 514.976 117.94 515.504 117.604C516.044 117.256 516.674 117.082 517.394 117.082C518.09 117.082 518.708 117.238 519.248 117.55C519.8 117.862 520.232 118.294 520.544 118.846C520.868 119.398 521.03 120.022 521.03 120.718V127H519.338V121.258C519.338 120.718 519.242 120.262 519.05 119.89C518.858 119.518 518.582 119.23 518.222 119.026C517.874 118.81 517.472 118.702 517.016 118.702C516.56 118.702 516.152 118.81 515.792 119.026C515.444 119.23 515.168 119.524 514.964 119.908C514.76 120.28 514.658 120.73 514.658 121.258V127H512.984ZM527.548 127.108C526.6 127.108 525.868 126.838 525.352 126.298C524.848 125.758 524.596 124.996 524.596 124.012V118.9H522.832V117.298H523.192C523.624 117.298 523.966 117.166 524.218 116.902C524.47 116.638 524.596 116.29 524.596 115.858V115.066H526.27V117.298H528.448V118.9H526.27V123.958C526.27 124.282 526.318 124.564 526.414 124.804C526.522 125.044 526.696 125.236 526.936 125.38C527.176 125.512 527.494 125.578 527.89 125.578C527.974 125.578 528.076 125.572 528.196 125.56C528.328 125.548 528.448 125.536 528.556 125.524V127C528.4 127.036 528.226 127.06 528.034 127.072C527.842 127.096 527.68 127.108 527.548 127.108ZM535.123 127.216C534.187 127.216 533.353 126.994 532.621 126.55C531.889 126.106 531.313 125.5 530.893 124.732C530.473 123.952 530.263 123.082 530.263 122.122C530.263 121.15 530.467 120.286 530.875 119.53C531.295 118.774 531.859 118.18 532.567 117.748C533.287 117.304 534.091 117.082 534.979 117.082C535.699 117.082 536.335 117.214 536.887 117.478C537.451 117.73 537.925 118.078 538.309 118.522C538.705 118.954 539.005 119.452 539.209 120.016C539.425 120.568 539.533 121.144 539.533 121.744C539.533 121.876 539.521 122.026 539.497 122.194C539.485 122.35 539.467 122.5 539.443 122.644H531.487V121.204H538.471L537.679 121.852C537.787 121.228 537.727 120.67 537.499 120.178C537.271 119.686 536.935 119.296 536.491 119.008C536.047 118.72 535.543 118.576 534.979 118.576C534.415 118.576 533.899 118.72 533.431 119.008C532.963 119.296 532.597 119.71 532.333 120.25C532.081 120.778 531.979 121.408 532.027 122.14C531.979 122.848 532.087 123.472 532.351 124.012C532.627 124.54 533.011 124.954 533.503 125.254C534.007 125.542 534.553 125.686 535.141 125.686C535.789 125.686 536.335 125.536 536.779 125.236C537.223 124.936 537.583 124.552 537.859 124.084L539.263 124.804C539.071 125.248 538.771 125.656 538.363 126.028C537.967 126.388 537.493 126.676 536.941 126.892C536.401 127.108 535.795 127.216 535.123 127.216ZM546.306 127.216C545.394 127.216 544.572 126.994 543.84 126.55C543.12 126.106 542.55 125.5 542.13 124.732C541.71 123.964 541.5 123.106 541.5 122.158C541.5 121.186 541.71 120.322 542.13 119.566C542.55 118.798 543.12 118.192 543.84 117.748C544.572 117.304 545.394 117.082 546.306 117.082C547.11 117.082 547.824 117.256 548.448 117.604C549.072 117.94 549.564 118.396 549.924 118.972L549.654 119.386V113.374H551.346V127H549.708V124.93L549.924 125.218C549.588 125.854 549.096 126.346 548.448 126.694C547.812 127.042 547.098 127.216 546.306 127.216ZM546.45 125.596C547.062 125.596 547.608 125.446 548.088 125.146C548.568 124.846 548.946 124.438 549.222 123.922C549.51 123.394 549.654 122.806 549.654 122.158C549.654 121.498 549.51 120.91 549.222 120.394C548.946 119.866 548.568 119.452 548.088 119.152C547.608 118.852 547.062 118.702 546.45 118.702C545.85 118.702 545.304 118.858 544.812 119.17C544.332 119.47 543.954 119.878 543.678 120.394C543.402 120.898 543.264 121.486 543.264 122.158C543.264 122.806 543.402 123.394 543.678 123.922C543.954 124.438 544.332 124.846 544.812 125.146C545.292 125.446 545.838 125.596 546.45 125.596Z" fill="#151304" fill-opacity="0.6"/>
<g clip-path="url(#clip0_3419_5168)">
<path d="M792.889 62.2049L792.889 62.205C793.476 62.5631 793.849 63.1632 793.909 63.8485C793.909 63.8485 793.909 63.8486 793.909 63.8486L792.889 62.2049ZM792.889 62.2049C792.154 61.7571 791.226 61.7907 790.526 62.2907L790.526 62.2907M792.889 62.2049L790.526 62.2907M790.526 62.2907L785.957 65.5531L785.593 62.1658L785.365 62.1903M790.526 62.2907L785.365 62.1903M785.365 62.1903L785.593 62.1658C785.456 60.8964 784.39 59.9386 783.114 59.9386C781.874 59.9386 780.812 60.8638 780.643 62.092C780.643 62.092 780.643 62.092 780.643 62.092L780.025 66.5832M785.365 62.1903L780.025 66.5832M780.025 66.5832L777.19 62.7742C777.19 62.7742 777.19 62.7742 777.19 62.7742C776.72 62.1425 775.943 61.8003 775.159 61.8808L780.025 66.5832ZM775.032 64.3623L775.032 64.3623L780.423 72.147C780.528 72.2984 780.584 72.4784 780.584 72.6628C780.584 75.6979 779.554 79.1736 778.941 80.9762H786.493C785.719 79.0829 784.499 75.3561 784.718 71.0633C784.73 70.8196 784.84 70.5912 785.023 70.4298L791.992 64.2856C792.073 64.2145 792.113 64.1142 792.104 64.007C792.094 63.9 792.037 63.8082 791.945 63.7521C791.831 63.6825 791.688 63.6878 791.579 63.7654L791.579 63.7655L785.749 67.9286L785.749 67.9286C785.487 68.1155 785.145 68.1497 784.851 68.0179C784.557 67.8861 784.356 67.6083 784.321 67.2882L784.321 67.2882L783.791 62.3596C783.754 62.0122 783.463 61.7506 783.114 61.7506C782.775 61.7506 782.484 62.0044 782.438 62.3395C782.438 62.3395 782.438 62.3395 782.438 62.3395M775.032 64.3623L782.211 62.3082L782.438 62.3395M775.032 64.3623C774.905 64.1795 774.96 64.0065 774.994 63.9337L774.994 63.9336M775.032 64.3623L774.994 63.9336M782.438 62.3395L781.517 69.0244M782.438 62.3395L781.517 69.0244M781.517 69.0244C781.517 69.0244 781.517 69.0244 781.517 69.0245M781.517 69.0244L781.517 69.0245M774.994 63.9336C775.028 63.8608 775.123 63.7061 775.344 63.6833L775.344 63.6833M774.994 63.9336L775.344 63.6833M775.344 63.6833C775.494 63.6679 775.646 63.7344 775.737 63.8561M775.344 63.6833L775.737 63.8561M775.737 63.8561C775.737 63.8561 775.737 63.8561 775.737 63.8561M775.737 63.8561L775.737 63.8561M775.737 63.8561L779.893 69.4416L775.737 63.8561ZM780.845 69.7783C780.489 69.8699 780.113 69.7367 779.893 69.4417L780.845 69.7783ZM780.845 69.7783C781.201 69.6867 781.467 69.389 781.517 69.0245M780.845 69.7783L781.517 69.0245M787.899 82.7879C788.216 82.7879 788.511 82.6215 788.675 82.3495L775.159 61.8808C774.362 61.9626 773.683 62.4476 773.348 63.1758L773.348 63.1758C773.013 63.9041 773.085 64.7346 773.542 65.3936C773.542 65.3936 773.542 65.3936 773.542 65.3936L778.769 72.9409C778.725 74.8387 778.247 76.9607 777.771 78.6302C777.531 79.4739 777.292 80.1983 777.111 80.7146C777.021 80.9727 776.946 81.1786 776.893 81.3213C776.866 81.3927 776.845 81.4482 776.83 81.4865L776.813 81.5308L776.809 81.5429L776.807 81.5463L776.807 81.5473L776.807 81.5476L776.807 81.5477L776.807 81.5479C776.696 81.8269 776.731 82.1426 776.899 82.3909C777.068 82.6392 777.349 82.7879 777.649 82.7879H787.899Z" fill="#0E986A" stroke="#0E986A" stroke-width="0.458824"/>
<path d="M774.397 71.3774L774.397 71.3774C770.507 71.0664 767.339 68.2903 766.625 64.6471C763.685 63.8694 761.607 61.3026 761.607 58.2935C761.607 56.6977 762.202 55.1789 763.266 53.9917C762.554 53.1637 762.148 52.1089 762.148 51.0117C762.148 48.735 763.82 46.8515 766.053 46.4381C767.134 42.9505 770.516 40.4978 774.347 40.4978C774.957 40.4978 775.563 40.5595 776.157 40.6818C777.317 38.0029 780.063 36.2102 783.132 36.2102C785.877 36.2102 788.373 37.627 789.706 39.891C790.313 39.7452 790.936 39.6718 791.568 39.6718C794.903 39.6718 797.851 41.7636 798.87 44.7656C801.457 44.8423 803.554 46.8938 803.554 49.4271C803.554 50.2297 803.347 50.9987 802.95 51.6855C803.851 52.9767 804.341 54.5098 804.341 56.0756C804.341 59.4087 802.19 62.3212 799.019 63.4562C799.272 65.1185 798.857 66.7655 797.818 68.1715C796.364 70.1383 793.867 71.4064 791.443 71.4064C791.198 71.4064 790.951 71.3949 790.707 71.3722C790.177 71.3227 789.787 70.8527 789.837 70.3224C789.886 69.7918 790.355 69.4029 790.886 69.4516L790.887 69.4516C791.07 69.4688 791.258 69.4774 791.443 69.4774C793.238 69.4774 795.184 68.4893 796.266 67.0249C796.885 66.1877 797.499 64.8341 796.958 63.0719C796.879 62.8167 796.91 62.5405 797.043 62.3091L797.043 62.309C797.176 62.0775 797.399 61.9114 797.659 61.8502C800.467 61.1884 802.413 58.8079 802.413 56.0756C802.413 54.7019 801.934 53.412 801.023 52.3415L801.023 52.3414C800.721 51.9854 800.716 51.4633 801.014 51.1026C801.415 50.6169 801.625 50.0386 801.625 49.4271C801.625 47.934 800.336 46.6922 798.72 46.6922C798.575 46.6922 798.428 46.7027 798.283 46.7233L798.282 46.7234C797.781 46.7938 797.309 46.4655 797.204 45.9692C796.667 43.4484 794.304 41.6007 791.568 41.6007C790.87 41.6007 790.187 41.7186 789.539 41.9508C789.062 42.1217 788.533 41.8941 788.33 41.4299L774.397 71.3774ZM774.397 71.3774C774.926 71.4195 775.393 71.0244 775.435 70.4929C775.477 69.9619 775.081 69.4971 774.55 69.4547C771.321 69.1965 768.759 66.7847 768.438 63.7419L768.438 63.7419M774.397 71.3774L768.438 63.7419M768.438 63.7419C768.392 63.3086 768.061 62.9599 767.631 62.8909L767.631 62.8909M768.438 63.7419L767.631 62.8909M767.631 62.8909C765.247 62.5086 763.536 60.5675 763.536 58.2935C763.536 56.9233 764.168 55.6249 765.28 54.7329L765.28 54.7329M767.631 62.8909L765.28 54.7329M765.28 54.7329C765.516 54.5435 765.65 54.2545 765.641 53.952M765.28 54.7329L765.641 53.952M767.761 47.5243L767.761 47.5243C767.668 47.9547 767.295 48.2678 766.855 48.2848L767.761 47.5243ZM767.761 47.5243C768.395 44.5809 771.158 42.4267 774.347 42.4267C775.072 42.4267 775.788 42.5374 776.477 42.7557L776.477 42.7558M767.761 47.5243L776.477 42.7558M776.477 42.7558C776.726 42.8346 776.996 42.8092 777.226 42.6852M776.477 42.7558L777.226 42.6852M765.641 53.952C765.632 53.6496 765.481 53.3689 765.235 53.1939M765.641 53.952L765.235 53.1939M765.235 53.1939C764.494 52.6688 764.076 51.8736 764.076 51.0117C764.076 49.5559 765.282 48.3456 766.855 48.2848L765.235 53.1939ZM777.226 42.6852C777.457 42.5612 777.626 42.3491 777.697 42.0974M777.226 42.6852L777.697 42.0974M777.697 42.0974C778.35 39.7756 780.579 38.139 783.133 38.139M777.697 42.0974L783.133 38.139M783.133 38.139C785.42 38.139 787.457 39.4364 788.33 41.4298L783.133 38.139Z" fill="#0E986A" stroke="#0E986A" stroke-width="0.575778"/>
</g>
<mask id="path-13-inside-3_3419_5168" fill="white">
<path d="M820 32C820 14.3269 834.327 0 852 0H1208C1225.67 0 1240 14.3269 1240 32V132C1240 149.673 1225.67 164 1208 164H852C834.327 164 820 149.673 820 132V32Z"/>
</mask>
<path d="M820 32C820 14.3269 834.327 0 852 0H1208C1225.67 0 1240 14.3269 1240 32V132C1240 149.673 1225.67 164 1208 164H852C834.327 164 820 149.673 820 132V32Z" fill="#F9EBD5"/>
<path d="M819.5 31.5C819.5 13.5507 834.051 -1 852 -1H1208C1225.95 -1 1240.5 13.5507 1240.5 31.5L1239.5 32C1239.5 14.8792 1225.4 1 1208 1H852C834.603 1 820.5 14.8792 820.5 32L819.5 31.5ZM1240 164H820H1240ZM852 164C834.051 164 819.5 149.449 819.5 131.5V31.5C819.5 13.5507 834.051 -1 852 -1V1C834.603 1 820.5 14.8792 820.5 32V132C820.5 149.673 834.603 164 852 164ZM1208 -1C1225.95 -1 1240.5 13.5507 1240.5 31.5V131.5C1240.5 149.449 1225.95 164 1208 164C1225.4 164 1239.5 149.673 1239.5 132V32C1239.5 14.8792 1225.4 1 1208 1V-1Z" fill="#E88427" mask="url(#path-13-inside-3_3419_5168)"/>
<path d="M850.645 86V48.9219C849.988 49.7057 849.086 50.3438 847.938 50.8359C846.789 51.3099 845.704 51.5469 844.684 51.5469V43.8633C845.65 43.7174 846.689 43.4076 847.801 42.9336C848.913 42.4414 849.943 41.776 850.891 40.9375C851.857 40.0807 852.595 39.0508 853.105 37.8477H860.844V86H850.645ZM886.768 86.4375C883.286 86.4375 880.479 85.3529 878.346 83.1836C876.231 81.0143 875.174 77.9792 875.174 74.0781V51.875C875.174 47.2083 876.095 43.6354 877.936 41.1562C879.795 38.6771 882.812 37.4375 886.987 37.4375C889.265 37.4375 891.289 37.8568 893.057 38.6953C894.843 39.5339 896.247 40.7917 897.268 42.4688C898.289 44.1276 898.799 46.224 898.799 48.7578V57.0703H889.229V49.9609C889.229 48.5208 889.046 47.5547 888.682 47.0625C888.317 46.5521 887.752 46.2969 886.987 46.2969C886.093 46.2969 885.492 46.625 885.182 47.2812C884.872 47.9193 884.717 48.776 884.717 49.8516V73.9414C884.717 75.2721 884.908 76.2109 885.291 76.7578C885.692 77.3047 886.257 77.5781 886.987 77.5781C887.807 77.5781 888.381 77.2409 888.709 76.5664C889.056 75.8919 889.229 75.0169 889.229 73.9414V65.2734H898.908V74.3789C898.908 78.6081 897.842 81.6797 895.709 83.5938C893.576 85.4896 890.596 86.4375 886.768 86.4375ZM901.015 86V37.875H915.781C918.242 37.875 920.101 38.4401 921.359 39.5703C922.617 40.6823 923.455 42.25 923.874 44.2734C924.312 46.2786 924.531 48.6393 924.531 51.3555C924.531 53.9805 924.193 56.0768 923.519 57.6445C922.863 59.2122 921.614 60.2969 919.773 60.8984C921.286 61.2083 922.343 61.9648 922.945 63.168C923.564 64.3529 923.874 65.8932 923.874 67.7891V86H914.386V67.1602C914.386 65.7565 914.094 64.8906 913.511 64.5625C912.946 64.2161 912.025 64.043 910.749 64.043V86H901.015ZM910.804 55.7031H913.128C914.459 55.7031 915.124 54.2539 915.124 51.3555C915.124 49.4779 914.979 48.2474 914.687 47.6641C914.395 47.0807 913.848 46.7891 913.046 46.7891H910.804V55.7031ZM931.231 77.7695V72.082H925.543V65.7383H931.231V60.0508H937.575V65.7383H943.262V72.082H937.575V77.7695H931.231Z" fill="#E88427"/>
<path d="M850.143 127.216C849.291 127.216 848.511 127.06 847.803 126.748C847.095 126.424 846.495 125.986 846.003 125.434C845.511 124.882 845.157 124.264 844.941 123.58L846.471 122.95C846.795 123.814 847.275 124.48 847.911 124.948C848.559 125.404 849.315 125.632 850.179 125.632C850.707 125.632 851.169 125.548 851.565 125.38C851.961 125.212 852.267 124.978 852.483 124.678C852.711 124.366 852.825 124.006 852.825 123.598C852.825 123.034 852.663 122.59 852.339 122.266C852.027 121.93 851.565 121.678 850.953 121.51L848.487 120.754C847.515 120.454 846.771 119.98 846.255 119.332C845.739 118.684 845.481 117.94 845.481 117.1C845.481 116.368 845.655 115.726 846.003 115.174C846.363 114.61 846.855 114.172 847.479 113.86C848.115 113.536 848.835 113.374 849.639 113.374C850.443 113.374 851.169 113.518 851.817 113.806C852.477 114.094 853.035 114.484 853.491 114.976C853.947 115.456 854.283 116.008 854.499 116.632L852.987 117.262C852.699 116.506 852.267 115.936 851.691 115.552C851.115 115.156 850.437 114.958 849.657 114.958C849.177 114.958 848.751 115.042 848.379 115.21C848.019 115.366 847.737 115.6 847.533 115.912C847.341 116.212 847.245 116.572 847.245 116.992C847.245 117.484 847.401 117.922 847.713 118.306C848.025 118.69 848.499 118.984 849.135 119.188L851.385 119.854C852.441 120.178 853.239 120.64 853.779 121.24C854.319 121.84 854.589 122.584 854.589 123.472C854.589 124.204 854.397 124.852 854.013 125.416C853.641 125.98 853.119 126.424 852.447 126.748C851.787 127.06 851.019 127.216 850.143 127.216ZM861.096 127.108C860.148 127.108 859.416 126.838 858.9 126.298C858.396 125.758 858.144 124.996 858.144 124.012V118.9H856.38V117.298H856.74C857.172 117.298 857.514 117.166 857.766 116.902C858.018 116.638 858.144 116.29 858.144 115.858V115.066H859.818V117.298H861.996V118.9H859.818V123.958C859.818 124.282 859.866 124.564 859.962 124.804C860.07 125.044 860.244 125.236 860.484 125.38C860.724 125.512 861.042 125.578 861.438 125.578C861.522 125.578 861.624 125.572 861.744 125.56C861.876 125.548 861.996 125.536 862.104 125.524V127C861.948 127.036 861.774 127.06 861.582 127.072C861.39 127.096 861.228 127.108 861.096 127.108ZM868.671 127.216C867.735 127.216 866.901 126.994 866.169 126.55C865.437 126.106 864.861 125.5 864.441 124.732C864.021 123.952 863.811 123.082 863.811 122.122C863.811 121.15 864.015 120.286 864.423 119.53C864.843 118.774 865.407 118.18 866.115 117.748C866.835 117.304 867.639 117.082 868.527 117.082C869.247 117.082 869.883 117.214 870.435 117.478C870.999 117.73 871.473 118.078 871.857 118.522C872.253 118.954 872.553 119.452 872.757 120.016C872.973 120.568 873.081 121.144 873.081 121.744C873.081 121.876 873.069 122.026 873.045 122.194C873.033 122.35 873.015 122.5 872.991 122.644H865.035V121.204H872.019L871.227 121.852C871.335 121.228 871.275 120.67 871.047 120.178C870.819 119.686 870.483 119.296 870.039 119.008C869.595 118.72 869.091 118.576 868.527 118.576C867.963 118.576 867.447 118.72 866.979 119.008C866.511 119.296 866.145 119.71 865.881 120.25C865.629 120.778 865.527 121.408 865.575 122.14C865.527 122.848 865.635 123.472 865.899 124.012C866.175 124.54 866.559 124.954 867.051 125.254C867.555 125.542 868.101 125.686 868.689 125.686C869.337 125.686 869.883 125.536 870.327 125.236C870.771 124.936 871.131 124.552 871.407 124.084L872.811 124.804C872.619 125.248 872.319 125.656 871.911 126.028C871.515 126.388 871.041 126.676 870.489 126.892C869.949 127.108 869.343 127.216 868.671 127.216ZM875.443 130.6V117.298H877.081V119.386L876.865 118.972C877.225 118.396 877.717 117.94 878.341 117.604C878.965 117.256 879.679 117.082 880.483 117.082C881.395 117.082 882.211 117.304 882.931 117.748C883.663 118.192 884.239 118.798 884.66 119.566C885.079 120.322 885.289 121.186 885.289 122.158C885.289 123.106 885.079 123.964 884.66 124.732C884.239 125.5 883.663 126.106 882.931 126.55C882.211 126.994 881.389 127.216 880.465 127.216C879.685 127.216 878.971 127.042 878.323 126.694C877.687 126.346 877.195 125.854 876.847 125.218L877.117 124.93V130.6H875.443ZM880.339 125.596C880.951 125.596 881.497 125.446 881.977 125.146C882.457 124.846 882.829 124.438 883.093 123.922C883.369 123.394 883.507 122.806 883.507 122.158C883.507 121.486 883.369 120.898 883.093 120.394C882.829 119.878 882.457 119.47 881.977 119.17C881.497 118.858 880.951 118.702 880.339 118.702C879.727 118.702 879.175 118.852 878.683 119.152C878.203 119.452 877.819 119.866 877.531 120.394C877.255 120.91 877.117 121.498 877.117 122.158C877.117 122.806 877.255 123.394 877.531 123.922C877.819 124.438 878.203 124.846 878.683 125.146C879.175 125.446 879.727 125.596 880.339 125.596ZM891.139 127.216C890.167 127.216 889.321 126.976 888.601 126.496C887.881 126.016 887.371 125.368 887.071 124.552L888.403 123.904C888.679 124.48 889.057 124.936 889.537 125.272C890.017 125.608 890.551 125.776 891.139 125.776C891.667 125.776 892.105 125.65 892.453 125.398C892.801 125.146 892.975 124.816 892.975 124.408C892.975 124.12 892.891 123.892 892.723 123.724C892.567 123.544 892.375 123.406 892.147 123.31C891.919 123.202 891.709 123.124 891.517 123.076L890.059 122.662C889.183 122.41 888.541 122.05 888.133 121.582C887.737 121.114 887.539 120.568 887.539 119.944C887.539 119.368 887.683 118.87 887.971 118.45C888.271 118.018 888.673 117.682 889.177 117.442C889.693 117.202 890.269 117.082 890.905 117.082C891.757 117.082 892.519 117.298 893.191 117.73C893.875 118.162 894.361 118.768 894.649 119.548L893.281 120.178C893.065 119.674 892.741 119.278 892.309 118.99C891.877 118.69 891.391 118.54 890.851 118.54C890.359 118.54 889.969 118.666 889.681 118.918C889.393 119.158 889.249 119.464 889.249 119.836C889.249 120.112 889.321 120.34 889.465 120.52C889.609 120.688 889.783 120.82 889.987 120.916C890.191 121 890.389 121.072 890.581 121.132L892.165 121.6C892.957 121.828 893.569 122.182 894.001 122.662C894.445 123.142 894.667 123.718 894.667 124.39C894.667 124.93 894.517 125.416 894.217 125.848C893.917 126.28 893.503 126.616 892.975 126.856C892.447 127.096 891.835 127.216 891.139 127.216ZM900.329 130.6V117.298H901.967V119.386L901.751 118.972C902.111 118.396 902.603 117.94 903.227 117.604C903.851 117.256 904.565 117.082 905.369 117.082C906.281 117.082 907.097 117.304 907.817 117.748C908.549 118.192 909.125 118.798 909.545 119.566C909.965 120.322 910.175 121.186 910.175 122.158C910.175 123.106 909.965 123.964 909.545 124.732C909.125 125.5 908.549 126.106 907.817 126.55C907.097 126.994 906.275 127.216 905.351 127.216C904.571 127.216 903.857 127.042 903.209 126.694C902.573 126.346 902.081 125.854 901.733 125.218L902.003 124.93V130.6H900.329ZM905.225 125.596C905.837 125.596 906.383 125.446 906.863 125.146C907.343 124.846 907.715 124.438 907.979 123.922C908.255 123.394 908.393 122.806 908.393 122.158C908.393 121.486 908.255 120.898 907.979 120.394C907.715 119.878 907.343 119.47 906.863 119.17C906.383 118.858 905.837 118.702 905.225 118.702C904.613 118.702 904.061 118.852 903.569 119.152C903.089 119.452 902.705 119.866 902.417 120.394C902.141 120.91 902.003 121.498 902.003 122.158C902.003 122.806 902.141 123.394 902.417 123.922C902.705 124.438 903.089 124.846 903.569 125.146C904.061 125.446 904.613 125.596 905.225 125.596ZM917.014 127.216C916.078 127.216 915.244 126.994 914.512 126.55C913.78 126.106 913.204 125.5 912.784 124.732C912.364 123.952 912.154 123.082 912.154 122.122C912.154 121.15 912.358 120.286 912.766 119.53C913.186 118.774 913.75 118.18 914.458 117.748C915.178 117.304 915.982 117.082 916.87 117.082C917.59 117.082 918.226 117.214 918.778 117.478C919.342 117.73 919.816 118.078 920.2 118.522C920.596 118.954 920.896 119.452 921.1 120.016C921.316 120.568 921.424 121.144 921.424 121.744C921.424 121.876 921.412 122.026 921.388 122.194C921.376 122.35 921.358 122.5 921.334 122.644H913.378V121.204H920.362L919.57 121.852C919.678 121.228 919.618 120.67 919.39 120.178C919.162 119.686 918.826 119.296 918.382 119.008C917.938 118.72 917.434 118.576 916.87 118.576C916.306 118.576 915.79 118.72 915.322 119.008C914.854 119.296 914.488 119.71 914.224 120.25C913.972 120.778 913.87 121.408 913.918 122.14C913.87 122.848 913.978 123.472 914.242 124.012C914.518 124.54 914.902 124.954 915.394 125.254C915.898 125.542 916.444 125.686 917.032 125.686C917.68 125.686 918.226 125.536 918.67 125.236C919.114 124.936 919.474 124.552 919.75 124.084L921.154 124.804C920.962 125.248 920.662 125.656 920.254 126.028C919.858 126.388 919.384 126.676 918.832 126.892C918.292 127.108 917.686 127.216 917.014 127.216ZM923.787 127V117.298H925.425V119.08L925.245 118.828C925.473 118.276 925.821 117.868 926.289 117.604C926.757 117.328 927.327 117.19 927.999 117.19H928.593V118.774H927.747C927.063 118.774 926.511 118.99 926.091 119.422C925.671 119.842 925.461 120.442 925.461 121.222V127H923.787ZM937.961 127.216C937.049 127.216 936.227 126.994 935.495 126.55C934.775 126.106 934.205 125.5 933.785 124.732C933.365 123.964 933.155 123.106 933.155 122.158C933.155 121.186 933.365 120.322 933.785 119.566C934.205 118.798 934.775 118.192 935.495 117.748C936.227 117.304 937.049 117.082 937.961 117.082C938.765 117.082 939.479 117.256 940.103 117.604C940.727 117.94 941.219 118.396 941.579 118.972L941.309 119.386V113.374H943.001V127H941.363V124.93L941.579 125.218C941.243 125.854 940.751 126.346 940.103 126.694C939.467 127.042 938.753 127.216 937.961 127.216ZM938.105 125.596C938.717 125.596 939.263 125.446 939.743 125.146C940.223 124.846 940.601 124.438 940.877 123.922C941.165 123.394 941.309 122.806 941.309 122.158C941.309 121.498 941.165 120.91 940.877 120.394C940.601 119.866 940.223 119.452 939.743 119.152C939.263 118.852 938.717 118.702 938.105 118.702C937.505 118.702 936.959 118.858 936.467 119.17C935.987 119.47 935.609 119.878 935.333 120.394C935.057 120.898 934.919 121.486 934.919 122.158C934.919 122.806 935.057 123.394 935.333 123.922C935.609 124.438 935.987 124.846 936.467 125.146C936.947 125.446 937.493 125.596 938.105 125.596ZM948.616 127.216C947.98 127.216 947.416 127.102 946.924 126.874C946.444 126.634 946.066 126.31 945.79 125.902C945.514 125.482 945.376 125.002 945.376 124.462C945.376 123.946 945.484 123.484 945.7 123.076C945.928 122.656 946.276 122.302 946.744 122.014C947.224 121.726 947.824 121.522 948.544 121.402L952.144 120.808V122.212L948.922 122.752C948.298 122.86 947.842 123.058 947.554 123.346C947.278 123.634 947.14 123.988 947.14 124.408C947.14 124.804 947.296 125.134 947.608 125.398C947.932 125.662 948.334 125.794 948.814 125.794C949.426 125.794 949.954 125.668 950.398 125.416C950.854 125.152 951.208 124.798 951.46 124.354C951.724 123.91 951.856 123.418 951.856 122.878V120.412C951.856 119.884 951.658 119.458 951.262 119.134C950.878 118.798 950.368 118.63 949.732 118.63C949.18 118.63 948.688 118.774 948.256 119.062C947.836 119.338 947.524 119.71 947.32 120.178L945.862 119.422C946.042 118.978 946.33 118.582 946.726 118.234C947.122 117.874 947.584 117.592 948.112 117.388C948.64 117.184 949.192 117.082 949.768 117.082C950.512 117.082 951.166 117.226 951.73 117.514C952.294 117.79 952.732 118.18 953.044 118.684C953.368 119.176 953.53 119.752 953.53 120.412V127H951.892V125.164L952.198 125.272C951.994 125.656 951.718 125.992 951.37 126.28C951.022 126.568 950.614 126.796 950.146 126.964C949.678 127.132 949.168 127.216 948.616 127.216ZM956.828 130.96C956.612 130.96 956.396 130.942 956.18 130.906C955.964 130.87 955.76 130.81 955.568 130.726V129.232C955.7 129.256 955.862 129.28 956.054 129.304C956.258 129.34 956.456 129.358 956.648 129.358C957.212 129.358 957.638 129.232 957.926 128.98C958.226 128.74 958.508 128.32 958.772 127.72L959.384 126.262L959.348 127.72L955.208 117.298H957.026L960.248 125.578H959.708L962.912 117.298H964.766L960.392 128.152C960.188 128.668 959.924 129.136 959.6 129.556C959.288 129.988 958.904 130.33 958.448 130.582C957.992 130.834 957.452 130.96 956.828 130.96Z" fill="#151304" fill-opacity="0.6"/>
<g clip-path="url(#clip1_3419_5168)">
<path d="M1205.21 80.1429C1206.28 78.0096 1206.83 76.032 1207.46 73.1469C1207.59 72.5516 1207.22 71.9622 1206.62 71.8275C1206.62 71.8275 1206.62 71.8275 1206.62 71.8275L1194.66 69.1168L1194.66 69.1167C1194.12 68.9939 1193.57 69.2922 1193.37 69.814L1193.37 69.8141C1192.2 73.0002 1191.83 75.888 1192.24 78.2232C1192.64 80.5625 1193.83 82.3506 1195.77 83.3099C1196.9 83.8682 1198.04 84.1513 1199.15 84.1513C1199.9 84.1513 1200.64 84.0211 1201.35 83.7594L1201.35 83.7594C1202.97 83.1582 1204.34 81.8708 1205.21 80.1429ZM1205.21 80.1429L1205.07 80.0743M1205.21 80.1429L1205.07 80.0743M1205.07 80.0743C1204.22 81.7722 1202.88 83.0299 1201.29 83.6159M1205.07 80.0743C1206.14 77.9583 1206.68 75.9957 1207.31 73.1141C1207.43 72.6009 1207.1 72.0927 1206.59 71.9767L1201.29 83.6159M1201.29 83.6159C1200.6 83.8713 1199.89 83.9984 1199.15 83.9984C1198.07 83.9984 1196.95 83.722 1195.84 83.1728C1192.07 81.3052 1191.18 76.2067 1193.52 69.867L1201.29 83.6159ZM1195.14 71.4991L1205.05 73.7455C1204.55 75.9016 1204.06 77.4923 1203.23 79.1474C1202.56 80.4673 1201.6 81.3307 1200.48 81.7064C1199.36 82.082 1198.07 81.9759 1196.76 81.3226C1195.39 80.6461 1194.57 79.3354 1194.35 77.3855C1194.17 75.7335 1194.44 73.6715 1195.14 71.4991Z" fill="#E88427" stroke="#E88427" stroke-width="0.305882"/>
<path d="M1193.11 66.2693L1193.11 66.2693L1193.15 66.8162L1193.15 66.8162C1193.19 67.2985 1193.54 67.6991 1194.01 67.8061L1194.01 67.8061L1207.48 70.8569L1207.48 70.8569C1207.56 70.8755 1207.64 70.8845 1207.72 70.8845C1208.21 70.8845 1208.65 70.5669 1208.79 70.0841C1209.04 69.2064 1209.71 66.8979 1210.31 65.5928C1213.1 59.4616 1213.08 52.1515 1210.22 47.3968C1208.56 44.6202 1206.12 43.0462 1203.19 42.8657C1198.54 42.579 1195.05 46.5052 1193.76 50.2303C1192.55 53.7273 1192.1 58.0618 1192.61 61.2822C1192.79 62.3699 1192.97 64.6186 1193.11 66.2693ZM1194.8 60.9322L1194.8 60.9321C1194.34 58.056 1194.75 54.1364 1195.85 50.9555L1195.71 50.9055L1195.85 50.9555C1196.39 49.4137 1197.36 47.8891 1198.62 46.7779C1199.88 45.6671 1201.41 44.9769 1203.06 45.0792L1203.06 45.0792C1205.79 45.2473 1207.42 47.0422 1208.32 48.5384C1210.77 52.605 1210.76 59.2429 1208.29 64.6727C1207.82 65.6989 1207.35 67.1409 1206.95 68.4642L1195.29 65.823C1195.15 64.1038 1194.98 62.0491 1194.8 60.9322Z" fill="#E88427" stroke="#E88427" stroke-width="0.305882"/>
<path d="M1176.44 63.8706L1176.44 63.8706C1175.85 64.0053 1175.47 64.5946 1175.61 65.19L1175.61 65.19C1176.24 68.0751 1176.79 70.0527 1177.86 72.1859C1178.73 73.9138 1180.1 75.2012 1181.72 75.8023C1182.43 76.0641 1183.16 76.1943 1183.92 76.1943C1185.03 76.1943 1186.17 75.9111 1187.3 75.3528L1187.23 75.2158L1187.3 75.3528C1189.23 74.3936 1190.42 72.6055 1190.83 70.2662C1191.24 67.931 1190.87 65.0432 1189.69 61.857C1189.5 61.3351 1188.95 61.0367 1188.41 61.1598C1188.41 61.1598 1188.41 61.1598 1188.41 61.1598L1176.44 63.8706ZM1188.71 69.4285C1188.49 71.3784 1187.68 72.689 1186.31 73.3655C1184.99 74.0188 1183.71 74.1249 1182.59 73.7493C1181.47 73.3737 1180.5 72.5102 1179.84 71.1905C1179.01 69.5353 1178.52 67.9446 1178.01 65.7885L1187.93 63.5421C1188.62 65.7145 1188.9 67.7766 1188.71 69.4285Z" fill="#E88427" stroke="#E88427" stroke-width="0.305882"/>
<path d="M1189.92 58.8669L1189.92 58.8668L1189.96 58.3199L1189.96 58.3199C1190.1 56.6692 1190.28 54.4206 1190.46 53.3328L1190.3 53.3087L1190.46 53.3328C1190.97 50.1125 1190.52 45.778 1189.31 42.2809C1188.02 38.5559 1184.52 34.6312 1179.87 34.9164L1179.87 34.9164C1176.94 35.0969 1174.51 36.6708 1172.84 39.4474C1169.99 44.2022 1169.97 51.5124 1172.76 57.6434C1173.36 58.9485 1174.03 61.257 1174.28 62.1347C1174.42 62.6175 1174.86 62.9351 1175.34 62.9351C1175.43 62.9351 1175.51 62.9261 1175.59 62.9075L1175.59 62.9075L1189.06 59.8568L1189.06 59.8567C1189.53 59.7497 1189.88 59.349 1189.92 58.8669ZM1174.78 56.7234L1174.78 56.7234C1172.3 51.2937 1172.3 44.6557 1174.74 40.589L1174.61 40.5103L1174.74 40.589C1175.64 39.0929 1177.28 37.2979 1180.01 37.1298C1180.12 37.1232 1180.23 37.12 1180.33 37.12C1181.91 37.12 1183.37 37.8385 1184.57 38.9389C1185.77 40.0394 1186.7 41.5147 1187.21 43.0061C1188.31 46.1872 1188.73 50.1068 1188.27 52.9829C1188.09 54.0998 1187.91 56.1546 1187.77 57.8737L1176.11 60.5148C1175.72 59.1915 1175.25 57.7495 1174.78 56.7234Z" fill="#E88427" stroke="#E88427" stroke-width="0.305882"/>
</g>
<defs>
<clipPath id="clip0_3419_5168">
<rect width="46.0623" height="48.9412" fill="white" transform="translate(759.938 35.0586)"/>
</clipPath>
<clipPath id="clip1_3419_5168">
<rect width="48.9412" height="48.9412" fill="white" transform="translate(1167.06 35.0586)"/>
</clipPath>
</defs>
</svg>
