<svg width="24" height="25" viewBox="0 0 24 25" fill="none" xmlns="http://www.w3.org/2000/svg">
<g clip-path="url(#clip0_3419_5289)">
<path d="M0 24.6602L1.65516 18.6602C0.579328 16.7981 0 14.7291 0 12.5774C0 6.03948 5.37933 0.660156 11.9586 0.660156C18.5379 0.660156 24 6.03948 24 12.5774C24 19.1153 18.5379 24.6602 11.9586 24.6602C9.88964 24.6602 7.90345 23.9981 6.12412 23.005L0 24.6602Z" fill="#EDEDED"/>
<path d="M6.4565 20.8507L6.82892 21.0576C8.35995 22.0093 10.1393 22.5886 12.0013 22.5886C17.422 22.5886 21.9324 18.0783 21.9324 12.5748C21.9324 7.07136 17.422 2.72656 11.96 2.72656C6.49789 2.72656 2.07031 7.11275 2.07031 12.5748C2.07031 14.4783 2.60825 16.3403 3.60134 17.9127L3.84964 18.2852L2.89794 21.761L6.4565 20.8507Z" fill="#55CD6C"/>
<path d="M8.77235 7.03163L7.98616 6.99023C7.73787 6.99023 7.48962 7.07302 7.3241 7.23853C6.95168 7.56956 6.33101 8.19023 6.16549 9.01786C5.87585 10.2593 6.33101 11.7489 7.40688 13.2385C8.48276 14.7282 10.5517 17.1282 14.1931 18.1627C15.3517 18.4937 16.262 18.2868 17.0069 17.8316C17.5862 17.4592 17.9586 16.8799 18.0828 16.2592L18.2069 15.6799C18.2483 15.5144 18.1655 15.3075 18 15.2247L15.3931 14.0247C15.2276 13.9419 15.0206 13.9833 14.8965 14.1488L13.862 15.473C13.7793 15.5558 13.6551 15.5971 13.531 15.5558C12.8276 15.3075 10.4689 14.3144 9.18616 11.8316C9.14477 11.7075 9.14477 11.5833 9.22755 11.5006L10.2206 10.3834C10.3034 10.2593 10.3448 10.0937 10.3034 9.96956L9.10343 7.27992C9.06199 7.15575 8.93787 7.03163 8.77235 7.03163Z" fill="#FEFEFE"/>
</g>
<defs>
<clipPath id="clip0_3419_5289">
<rect width="24" height="24" fill="white" transform="translate(0 0.660156)"/>
</clipPath>
</defs>
</svg>
